<svg xmlns="http://www.w3.org/2000/svg" width="93" height="15.786" viewBox="0 0 93 15.786">
  <g id="Group_447" data-name="Group 447" transform="translate(-279 -1290.107)">
    <g id="Path_520" data-name="Path 520" transform="translate(279 1305.336)" fill="#383844">
      <path d="M 5.5 0.05717244744300842 C 2.742990016937256 0.05717244744300842 0.5 -2.18581748008728 0.5 -4.942827701568604 C 0.5 -7.110359191894531 3.804420709609985 -12.0741081237793 5.499966621398926 -14.39154529571533 C 7.195412635803223 -12.07390594482422 10.5 -7.109462261199951 10.5 -4.942827701568604 C 10.5 -2.18581748008728 8.257010459899902 0.05717244744300842 5.5 0.05717244744300842 Z" stroke="none"/>
      <path d="M 5.499939441680908 -13.53160762786865 C 4.987781524658203 -12.81120872497559 4.290524959564209 -11.79901123046875 3.597119808197021 -10.69365787506104 C 1.337409973144531 -7.091467380523682 1 -5.544407844543457 1 -4.942827224731445 C 1 -2.461517333984375 3.01869010925293 -0.4428272247314453 5.5 -0.4428272247314453 C 7.98130989074707 -0.4428272247314453 10 -2.461517333984375 10 -4.942827224731445 C 10 -5.317397117614746 9.867609977722168 -6.048337936401367 9.236889839172363 -7.403387546539307 C 8.799400329589844 -8.343307495117188 8.184880256652832 -9.446287155151367 7.41038990020752 -10.6816873550415 C 6.715369701385498 -11.79033279418945 6.014388084411621 -12.80796241760254 5.499939441680908 -13.53160762786865 M 5.5 -15.22912788391113 C 5.5 -15.22912788391113 11 -7.980397701263428 11 -4.942827224731445 C 11 -1.905267715454102 8.537569999694824 0.5571727752685547 5.5 0.5571727752685547 C 2.462430000305176 0.5571727752685547 0 -1.905267715454102 0 -4.942827224731445 C 0 -7.980397701263428 5.5 -15.22912788391113 5.5 -15.22912788391113 Z" stroke="none" fill="#383844"/>
    </g>
    <g id="Path_521" data-name="Path 521" transform="translate(299 1305.336)" fill="#383844">
      <path d="M 5.5 0.05717244744300842 C 2.742990016937256 0.05717244744300842 0.5 -2.18581748008728 0.5 -4.942827701568604 C 0.5 -7.110359191894531 3.804420709609985 -12.0741081237793 5.499966621398926 -14.39154529571533 C 7.195412635803223 -12.07390594482422 10.5 -7.109462261199951 10.5 -4.942827701568604 C 10.5 -2.18581748008728 8.257010459899902 0.05717244744300842 5.5 0.05717244744300842 Z" stroke="none"/>
      <path d="M 5.499939441680908 -13.53160762786865 C 4.987781524658203 -12.81120872497559 4.290524959564209 -11.79901123046875 3.597119808197021 -10.69365787506104 C 1.337409973144531 -7.091467380523682 1 -5.544407844543457 1 -4.942827224731445 C 1 -2.461517333984375 3.01869010925293 -0.4428272247314453 5.5 -0.4428272247314453 C 7.98130989074707 -0.4428272247314453 10 -2.461517333984375 10 -4.942827224731445 C 10 -5.317397117614746 9.867609977722168 -6.048337936401367 9.236889839172363 -7.403387546539307 C 8.799400329589844 -8.343307495117188 8.184880256652832 -9.446287155151367 7.41038990020752 -10.6816873550415 C 6.715369701385498 -11.79033279418945 6.014388084411621 -12.80796241760254 5.499939441680908 -13.53160762786865 M 5.5 -15.22912788391113 C 5.5 -15.22912788391113 11 -7.980397701263428 11 -4.942827224731445 C 11 -1.905267715454102 8.537569999694824 0.5571727752685547 5.5 0.5571727752685547 C 2.462430000305176 0.5571727752685547 0 -1.905267715454102 0 -4.942827224731445 C 0 -7.980397701263428 5.5 -15.22912788391113 5.5 -15.22912788391113 Z" stroke="none" fill="#383844"/>
    </g>
    <g id="Path_522" data-name="Path 522" transform="translate(320 1305.336)" fill="#383844">
      <path d="M 5.5 0.05717244744300842 C 2.742990016937256 0.05717244744300842 0.5 -2.18581748008728 0.5 -4.942827701568604 C 0.5 -7.110359191894531 3.804420709609985 -12.0741081237793 5.499966621398926 -14.39154529571533 C 7.195412635803223 -12.07390594482422 10.5 -7.109462261199951 10.5 -4.942827701568604 C 10.5 -2.18581748008728 8.257010459899902 0.05717244744300842 5.5 0.05717244744300842 Z" stroke="none"/>
      <path d="M 5.499939441680908 -13.53160762786865 C 4.987781524658203 -12.81120872497559 4.290524959564209 -11.79901123046875 3.597119808197021 -10.69365787506104 C 1.337409973144531 -7.091467380523682 1 -5.544407844543457 1 -4.942827224731445 C 1 -2.461517333984375 3.01869010925293 -0.4428272247314453 5.5 -0.4428272247314453 C 7.98130989074707 -0.4428272247314453 10 -2.461517333984375 10 -4.942827224731445 C 10 -5.317397117614746 9.867609977722168 -6.048337936401367 9.236889839172363 -7.403387546539307 C 8.799400329589844 -8.343307495117188 8.184880256652832 -9.446287155151367 7.41038990020752 -10.6816873550415 C 6.715369701385498 -11.79033279418945 6.014388084411621 -12.80796241760254 5.499939441680908 -13.53160762786865 M 5.5 -15.22912788391113 C 5.5 -15.22912788391113 11 -7.980397701263428 11 -4.942827224731445 C 11 -1.905267715454102 8.537569999694824 0.5571727752685547 5.5 0.5571727752685547 C 2.462430000305176 0.5571727752685547 0 -1.905267715454102 0 -4.942827224731445 C 0 -7.980397701263428 5.5 -15.22912788391113 5.5 -15.22912788391113 Z" stroke="none" fill="#383844"/>
    </g>
    <g id="Path_523" data-name="Path 523" transform="translate(340 1305.336)" fill="#383844">
      <path d="M 5.5 0.05717244744300842 C 2.742990016937256 0.05717244744300842 0.5 -2.18581748008728 0.5 -4.942827701568604 C 0.5 -7.110359191894531 3.804420709609985 -12.0741081237793 5.499966621398926 -14.39154529571533 C 7.195412635803223 -12.07390594482422 10.5 -7.109462261199951 10.5 -4.942827701568604 C 10.5 -2.18581748008728 8.257010459899902 0.05717244744300842 5.5 0.05717244744300842 Z" stroke="none"/>
      <path d="M 5.499939441680908 -13.53160762786865 C 4.987781524658203 -12.81120872497559 4.290524959564209 -11.79901123046875 3.597119808197021 -10.69365787506104 C 1.337409973144531 -7.091467380523682 1 -5.544407844543457 1 -4.942827224731445 C 1 -2.461517333984375 3.01869010925293 -0.4428272247314453 5.5 -0.4428272247314453 C 7.98130989074707 -0.4428272247314453 10 -2.461517333984375 10 -4.942827224731445 C 10 -5.317397117614746 9.867609977722168 -6.048337936401367 9.236889839172363 -7.403387546539307 C 8.799400329589844 -8.343307495117188 8.184880256652832 -9.446287155151367 7.41038990020752 -10.6816873550415 C 6.715369701385498 -11.79033279418945 6.014388084411621 -12.80796241760254 5.499939441680908 -13.53160762786865 M 5.5 -15.22912788391113 C 5.5 -15.22912788391113 11 -7.980397701263428 11 -4.942827224731445 C 11 -1.905267715454102 8.537569999694824 0.5571727752685547 5.5 0.5571727752685547 C 2.462430000305176 0.5571727752685547 0 -1.905267715454102 0 -4.942827224731445 C 0 -7.980397701263428 5.5 -15.22912788391113 5.5 -15.22912788391113 Z" stroke="none" fill="#383844"/>
    </g>
    <g id="Path_524" data-name="Path 524" transform="translate(361 1305.336)" fill="none">
      <path d="M5.5-15.229S11-7.98,11-4.943A5.5,5.5,0,0,1,5.5.557,5.5,5.5,0,0,1,0-4.943C0-7.98,5.5-15.229,5.5-15.229Z" stroke="none"/>
      <path d="M 5.499939441680908 -13.53160762786865 C 4.987781524658203 -12.81120872497559 4.290524959564209 -11.79901123046875 3.597119808197021 -10.69365787506104 C 1.337409973144531 -7.091467380523682 1 -5.544407844543457 1 -4.942827224731445 C 1 -2.461517333984375 3.01869010925293 -0.4428272247314453 5.5 -0.4428272247314453 C 7.98130989074707 -0.4428272247314453 10 -2.461517333984375 10 -4.942827224731445 C 10 -5.317397117614746 9.867609977722168 -6.048337936401367 9.236889839172363 -7.403387546539307 C 8.799400329589844 -8.343307495117188 8.184880256652832 -9.446287155151367 7.41038990020752 -10.6816873550415 C 6.715369701385498 -11.79033279418945 6.014388084411621 -12.80796241760254 5.499939441680908 -13.53160762786865 M 5.5 -15.22912788391113 C 5.5 -15.22912788391113 11 -7.980397701263428 11 -4.942827224731445 C 11 -1.905267715454102 8.537569999694824 0.5571727752685547 5.5 0.5571727752685547 C 2.462430000305176 0.5571727752685547 0 -1.905267715454102 0 -4.942827224731445 C 0 -7.980397701263428 5.5 -15.22912788391113 5.5 -15.22912788391113 Z" stroke="none" fill="#383844"/>
    </g>
  </g>
</svg>
