<?xml version="1.0" encoding="iso-8859-1"?>
<!-- Generator: Adobe Illustrator 19.0.0, SVG Export Plug-In . SVG Version: 6.00 Build 0)  -->
<svg version="1.1" id="Capa_1" xmlns="http://www.w3.org/2000/svg" xmlns:xlink="http://www.w3.org/1999/xlink" x="0px" y="0px"
	 viewBox="0 0 512 512" style="enable-background:new 0 0 512 512;" xml:space="preserve">
<g>
	<g>
		<path d="M449.603,177.797l-50.188-18.267c18.146-14.994,25.894-38.777,20.339-61.377c-10.917-44.403-65.056-61.259-99.26-31.022
			l-34.652,30.632l-6.855-45.94c-6.778-45.229-59.141-66.989-95.978-40.039c-18.419,13.475-28.217,36.704-23.872,60.29
			l-47.318-17.222C88.539,46.377,62.7,58.425,54.225,81.708l-20.49,56.297c-2.829,7.773,1.179,16.369,8.953,19.197
			c3.153,1.147,230.742,83.983,234.084,85.199c-9.472,0-216.903,0-226.029,0c-8.272,0-14.978,6.706-14.978,14.978v209.688
			c0,24.776,20.157,44.933,44.933,44.933H200.52h59.911h119.822c24.776,0,44.933-20.157,44.933-44.933V296.42l11.587,4.218
			c7.737,2.818,16.355-1.147,19.197-8.952l20.491-56.297C484.933,212.106,472.886,186.271,449.603,177.797z M185.541,482.045H80.697
			c-8.259,0-14.978-6.719-14.978-14.978v-194.71h119.822V482.045z M245.452,482.045h-29.955V272.357h29.955V482.045z
			 M340.333,89.575c17.375-15.361,44.805-6.744,50.331,15.731c5.893,23.963-17.269,44.741-40.451,36.317
			c-19.718-7.177-28.958-10.54-48.703-17.727L340.333,89.575z M200.695,35.962c18.72-13.694,45.237-2.582,48.668,20.303l7.68,51.445
			c-5.528-2.012-43.262-15.747-48.699-17.725C185.16,81.542,180.781,50.528,200.695,35.962z M207.751,185.402L67.007,134.175
			l15.368-42.222c2.825-7.761,11.438-11.775,19.198-8.952c15.75,5.732,121.811,44.335,126.668,46.103L207.751,185.402z
			 M264.049,205.894L235.9,195.648l20.491-56.297l28.149,10.246L264.049,205.894z M395.229,467.067
			c0,8.259-6.719,14.978-14.978,14.978H275.408V272.357h83.666l36.156,13.16V467.067z M448.309,225.142l-15.367,42.223
			l-140.744-51.227l20.491-56.297l126.669,46.103C447.119,208.769,451.134,217.382,448.309,225.142z"/>
	</g>
</g>
<g>
</g>
<g>
</g>
<g>
</g>
<g>
</g>
<g>
</g>
<g>
</g>
<g>
</g>
<g>
</g>
<g>
</g>
<g>
</g>
<g>
</g>
<g>
</g>
<g>
</g>
<g>
</g>
<g>
</g>
</svg>
