<svg xmlns="http://www.w3.org/2000/svg" width="1441.055" height="80.065" viewBox="0 0 1441.055 80.065">
  <path id="Path_878" data-name="Path 878" d="M860.9,618.985c28.56-23.532,152.83-20.141,188.436-19.11,40.945,1.186,103.98,4.447,143.646-7.179,12.869-3.771,25.324-10.049,33.124-20.529,3-4.036,4.732-9.138,3.4-13.87s-6.3-8.727-11.6-8.254-9.457,6.387-6.858,10.654a21.12,21.12,0,0,0-8.546-7.266c-3.587-1.486-8.159-1.389-11.119.987-3,2.409-3.678,6.615-2.515,10.11s3.854,6.388,6.753,8.9a60.473,60.473,0,0,0,22.028,12.032c45.583,13.754,99.961-2.554,146.5-5.875,57.049-4.071,114.376-5.452,171.613-4.162,181.009,4.079,354.344,54.079,535.224,52.614,56.824-.462,179.653-7.035,229.915-30.262" transform="translate(-860.26 -549.001)" fill="none" stroke="#e64b4b" stroke-miterlimit="10" stroke-width="2"/>
</svg>
