<?xml version="1.0" encoding="utf-8"?>
<!-- Generator: Adobe Illustrator 23.0.2, SVG Export Plug-In . SVG Version: 6.00 Build 0)  -->
<svg version="1.1" id="圖層_1" xmlns="http://www.w3.org/2000/svg" xmlns:xlink="http://www.w3.org/1999/xlink" x="0px" y="0px"
	 viewBox="0 0 104.4 140" style="enable-background:new 0 0 104.4 140;" xml:space="preserve">
<style type="text/css">
	.st0{fill:none;stroke:#383844;stroke-linecap:round;stroke-miterlimit:10;}
	.st1{fill:#383844;}
</style>
<g>
	<path class="st0" d="M59.1,8.7c0,0-18.1,10.1-20.1,28.6C38,46,44.4,49.5,41.3,56c-3.1,6.4-8.9,12.3-4.8,14.5
		c4.1,2.3,7.5,2.3,6.8,4.5c-0.7,2.3-2.1,4.5,0,5.2c2.1,0.6,0,4.5,2.1,5.2c2.1,0.6,2.1,1.6,2.1,5.5s2.5,8.3,7.5,7.7
		c5-0.5,12.1-2.2,14.3-1.1c5.2,2.5,6.7,8.5,15.9,7.4"/>
	<path class="st0" d="M80.9,100.5c-6.4,3.2-13.6,5-21.2,5c-26.2,0-47.5-21.3-47.5-47.5c0-25.1,19.5-45.7,44.1-47.4"/>
</g>
<g>
	<path class="st1" d="M1.7,137.6v-0.2l0.4-0.1c0.3-0.1,0.4-0.2,0.5-0.4s0.1-0.3,0.1-0.6V127c0-0.2,0-0.4-0.1-0.6
		c-0.1-0.1-0.2-0.3-0.5-0.3L1.7,126v-0.2h4.6v0.2L6,126.1c-0.2,0.1-0.4,0.2-0.5,0.4s-0.1,0.3-0.1,0.6v10.3h2.8c0.4,0,0.8-0.1,1-0.3
		s0.4-0.5,0.6-0.9l0.7-1.5h0.2l-0.2,3.1H1.7V137.6z"/>
	<path class="st1" d="M14.8,137.9c-0.5,0-0.9-0.1-1.3-0.3s-0.7-0.5-0.9-0.9c-0.2-0.4-0.3-0.9-0.3-1.6l0.1-4.6c0-0.3,0-0.5-0.1-0.6
		s-0.2-0.2-0.4-0.3l-0.2-0.1v-0.2l3.2-0.6l0.2,0.2l-0.1,2.6v4.3c0,0.4,0.1,0.7,0.3,0.8c0.2,0.2,0.5,0.3,0.8,0.3c0.3,0,0.6,0,0.9-0.1
		s0.5-0.2,0.8-0.4l0.1-5.9c0-0.3,0-0.5-0.1-0.6s-0.2-0.2-0.5-0.2l-0.2-0.1v-0.2l3.1-0.7l0.1,0.3l-0.1,2.6v4.9c0,0.3,0,0.5,0.1,0.6
		s0.2,0.3,0.5,0.4l0.2,0.1v0.2l-3.2,0.2l-0.2-1.1c-0.4,0.3-0.8,0.6-1.3,0.8C16,137.8,15.4,137.9,14.8,137.9z"/>
	<path class="st1" d="M22.2,137.6v-0.2l0.3-0.1c0.4-0.1,0.6-0.4,0.6-0.9v-5.6c0-0.3,0-0.5-0.1-0.6s-0.2-0.2-0.5-0.3l-0.3-0.1v-0.2
		l3.1-1l0.2,0.2l0.1,1.1c0.4-0.4,0.9-0.7,1.4-0.9s1-0.4,1.6-0.4c0.8,0,1.4,0.2,1.8,0.6c0.4,0.4,0.6,1.1,0.6,2v5.2
		c0,0.5,0.2,0.8,0.7,0.9l0.2,0.1v0.2h-4.2v-0.2l0.2-0.1c0.4-0.1,0.6-0.4,0.6-0.9v-5.7c0-0.8-0.4-1.2-1.2-1.2c-0.5,0-1.1,0.3-1.7,0.8
		v6.1c0,0.5,0.2,0.8,0.6,0.9l0.2,0.1v0.2L22.2,137.6L22.2,137.6z"/>
	<path class="st1" d="M35.6,137.9c-0.7,0-1.3-0.2-1.8-0.6c-0.5-0.4-0.7-1-0.7-1.7c0-0.6,0.3-1.1,0.9-1.6s1.5-0.8,2.7-1.1
		c0.2,0,0.4-0.1,0.6-0.1s0.5-0.1,0.8-0.1v-1.4c0-0.8-0.1-1.4-0.3-1.7c-0.2-0.3-0.5-0.5-0.9-0.5c-0.3,0-0.5,0.1-0.7,0.3
		s-0.3,0.5-0.3,1v0.2c0,0.5-0.2,0.9-0.4,1.1s-0.5,0.4-0.8,0.4s-0.6-0.1-0.8-0.3c-0.2-0.2-0.3-0.4-0.3-0.8c0-0.5,0.2-0.9,0.5-1.2
		s0.8-0.6,1.4-0.8s1.2-0.3,1.8-0.3c1.1,0,1.9,0.3,2.5,0.8s0.9,1.4,0.9,2.5v4c0,0.5,0.3,0.8,0.8,0.8h0.4l0.2,0.1
		c-0.2,0.3-0.5,0.5-0.7,0.7s-0.7,0.2-1.1,0.2c-0.5,0-0.9-0.1-1.3-0.4c-0.3-0.2-0.5-0.6-0.6-1c-0.4,0.4-0.7,0.7-1.1,1
		C36.7,137.8,36.2,137.9,35.6,137.9z M36.7,136.8c0.2,0,0.5-0.1,0.7-0.2c0.2-0.1,0.5-0.3,0.7-0.5v-3c-0.1,0-0.2,0-0.4,0.1
		c-0.1,0-0.3,0-0.4,0.1c-0.6,0.1-1,0.4-1.3,0.7s-0.5,0.8-0.5,1.4c0,0.5,0.1,0.9,0.3,1.1C36.1,136.7,36.3,136.8,36.7,136.8z"/>
	<path class="st1" d="M42.7,137.6v-0.2l0.3-0.1c0.2-0.1,0.4-0.2,0.5-0.3s0.1-0.3,0.1-0.6v-5.6c0-0.3,0-0.5-0.1-0.6s-0.3-0.2-0.5-0.3
		l-0.3-0.1v-0.2l3.1-1l0.2,0.2l0.2,1.5v0.1c0.2-0.3,0.4-0.6,0.7-0.9s0.6-0.5,0.9-0.7s0.7-0.3,1-0.3c0.5,0,0.8,0.1,1,0.4
		s0.4,0.6,0.4,1s-0.1,0.7-0.4,0.9c-0.2,0.2-0.5,0.3-0.8,0.3c-0.5,0-0.9-0.3-1.3-0.8l0,0c-0.1-0.2-0.3-0.3-0.4-0.3
		c-0.2,0-0.3,0.1-0.4,0.2c-0.1,0.1-0.2,0.2-0.3,0.4c-0.1,0.2-0.2,0.3-0.2,0.5v5c0,0.5,0.2,0.8,0.6,0.9l0.6,0.2v0.2h-4.9V137.6z"/>
	<path class="st1" d="M55.5,137.6v-0.2l0.4-0.1c0.2-0.1,0.4-0.2,0.5-0.3s0.1-0.3,0.1-0.6V127c0-0.2,0-0.4-0.1-0.6
		c-0.1-0.1-0.2-0.3-0.5-0.3l-0.3-0.1v-0.2H60c1.8,0,3.1,0.3,3.9,1s1.2,1.5,1.2,2.6c0,0.7-0.2,1.3-0.5,1.9c-0.3,0.6-0.9,1-1.6,1.4
		c-0.8,0.3-1.8,0.5-3.1,0.5h-0.6v3.3c0,0.5,0.2,0.8,0.7,0.9l0.5,0.2v0.2h-5V137.6z M59.1,132.7h0.7c0.6,0,1.1-0.1,1.4-0.3
		c0.4-0.2,0.6-0.5,0.8-1c0.2-0.5,0.3-1.1,0.3-2s-0.1-1.5-0.3-2c-0.2-0.5-0.5-0.8-0.9-1s-0.9-0.3-1.4-0.3h-0.6V132.7z"/>
	<path class="st1" d="M65.9,137.6v-0.2l0.2-0.1c0.4-0.1,0.6-0.4,0.6-0.9v-9.6c0-0.3,0-0.4-0.1-0.6c-0.1-0.1-0.2-0.2-0.5-0.3
		l-0.3-0.1v-0.2l3.2-0.8l0.3,0.2l-0.1,2.5v2.2c0.4-0.3,0.9-0.6,1.4-0.9c0.5-0.2,1-0.4,1.6-0.4c0.8,0,1.4,0.2,1.9,0.7
		c0.5,0.4,0.7,1.1,0.7,2.1v5.1c0,0.2,0,0.4,0.1,0.6c0.1,0.1,0.3,0.3,0.5,0.3l0.1,0.1v0.2h-4.2v-0.2l0.2-0.1c0.4-0.1,0.6-0.4,0.6-0.9
		v-5.7c0-0.5-0.1-0.8-0.2-1c-0.2-0.2-0.4-0.3-0.9-0.3c-0.3,0-0.6,0.1-0.9,0.2c-0.3,0.1-0.6,0.3-1,0.5v6.3c0,0.5,0.2,0.8,0.6,0.9h0.1
		v0.2h-3.9V137.6z"/>
	<path class="st1" d="M79.3,137.9c-0.7,0-1.3-0.2-1.8-0.6c-0.5-0.4-0.7-1-0.7-1.7c0-0.6,0.3-1.1,0.9-1.6c0.6-0.5,1.5-0.8,2.7-1.1
		c0.2,0,0.4-0.1,0.6-0.1c0.2,0,0.5-0.1,0.8-0.1v-1.4c0-0.8-0.1-1.4-0.3-1.7s-0.5-0.5-0.9-0.5c-0.3,0-0.5,0.1-0.7,0.3s-0.3,0.5-0.3,1
		v0.2c0,0.5-0.2,0.9-0.4,1.1s-0.5,0.4-0.8,0.4s-0.6-0.1-0.8-0.3s-0.3-0.4-0.3-0.8c0-0.5,0.2-0.9,0.5-1.2s0.8-0.6,1.4-0.8
		c0.6-0.2,1.2-0.3,1.8-0.3c1.1,0,1.9,0.3,2.5,0.8s0.9,1.4,0.9,2.5v4c0,0.5,0.3,0.8,0.8,0.8h0.4l0.2,0.1c-0.2,0.3-0.5,0.5-0.7,0.7
		s-0.7,0.2-1.1,0.2c-0.5,0-0.9-0.1-1.3-0.4c-0.3-0.2-0.5-0.6-0.6-1c-0.4,0.4-0.7,0.7-1.1,1C80.4,137.8,79.9,137.9,79.3,137.9z
		 M80.4,136.8c0.2,0,0.5-0.1,0.7-0.2c0.2-0.1,0.5-0.3,0.7-0.5v-3c-0.1,0-0.2,0-0.4,0.1c-0.1,0-0.3,0-0.4,0.1c-0.6,0.1-1,0.4-1.3,0.7
		s-0.5,0.8-0.5,1.4c0,0.5,0.1,0.9,0.3,1.1C79.8,136.7,80,136.8,80.4,136.8z"/>
	<path class="st1" d="M89.5,137.9c-0.6,0-1.1-0.1-1.6-0.2c-0.5-0.1-0.9-0.3-1.3-0.5v-2.1h0.2l0.6,1.1c0.3,0.5,0.6,0.8,0.9,1.1
		c0.3,0.2,0.7,0.4,1.2,0.4c0.6,0,1-0.1,1.4-0.4c0.4-0.3,0.5-0.6,0.5-1s-0.1-0.7-0.4-1s-0.7-0.5-1.4-0.7l-0.8-0.2
		c-0.7-0.2-1.3-0.6-1.7-1s-0.6-1-0.6-1.7c0-0.8,0.3-1.5,0.9-2s1.5-0.8,2.7-0.8c0.5,0,0.9,0.1,1.3,0.2c0.4,0.1,0.8,0.3,1.2,0.5
		l-0.1,1.9h-0.2l-0.6-1.1c-0.2-0.4-0.5-0.7-0.7-0.8s-0.6-0.2-1-0.2s-0.8,0.1-1.2,0.3s-0.5,0.6-0.5,1s0.2,0.7,0.5,1
		c0.3,0.2,0.8,0.5,1.4,0.7l0.8,0.2c0.9,0.3,1.5,0.6,1.9,1.1s0.6,1,0.6,1.7c0,0.9-0.3,1.6-1,2.1C91.7,137.6,90.8,137.9,89.5,137.9z"
		/>
	<path class="st1" d="M99.2,128.7c0.8,0,1.4,0.2,2,0.5s1,0.8,1.3,1.3s0.4,1.2,0.4,1.9c0,0.1,0,0.3,0,0.4c0,0.1,0,0.3-0.1,0.4h-5.4
		c0,1.3,0.2,2.2,0.7,2.8c0.4,0.6,1.1,0.9,2,0.9c0.6,0,1.1-0.1,1.5-0.3s0.7-0.5,1-0.8l0.2,0.2c-0.4,0.7-0.9,1.2-1.5,1.5
		s-1.4,0.6-2.2,0.6c-0.9,0-1.6-0.2-2.3-0.5c-0.7-0.4-1.2-0.9-1.5-1.6c-0.4-0.7-0.6-1.5-0.6-2.4c0-1,0.2-1.8,0.6-2.5
		c0.4-0.7,1-1.2,1.7-1.6C97.8,128.9,98.5,128.7,99.2,128.7z M99.2,129.1c-0.3,0-0.6,0.1-0.9,0.3c-0.2,0.2-0.4,0.6-0.6,1.1
		c-0.1,0.5-0.2,1.3-0.2,2.3h3.1c0.1-1.3,0.1-2.2-0.1-2.8C100.2,129.4,99.8,129.1,99.2,129.1z"/>
</g>
</svg>
