<?xml version="1.0" encoding="utf-8"?>
<!-- Generator: Adobe Illustrator 23.0.2, SVG Export Plug-In . SVG Version: 6.00 Build 0)  -->
<svg version="1.1" id="圖層_1" xmlns="http://www.w3.org/2000/svg" xmlns:xlink="http://www.w3.org/1999/xlink" x="0px" y="0px"
	 viewBox="0 0 117.5 152.2" style="enable-background:new 0 0 117.5 152.2;" xml:space="preserve">
<style type="text/css">
	.st0{fill:none;stroke:#383844;stroke-linecap:round;stroke-miterlimit:10;}
	.st1{fill:#383844;}
</style>
<g>
	<path class="st0" d="M55.5,1.3c0,0-20.7,11.5-23.1,32.8c-1.1,9.9,6.2,14,2.6,21.4c-3.5,7.4-10.2,14.1-5.5,16.7s8.6,2.6,7.8,5.2
		c-0.8,2.6-2.4,5.2,0,5.9c2.4,0.7,0,5.2,2.4,5.9c2.4,0.7,2.4,1.9,2.4,6.3s2.9,9.5,8.6,8.9s13.9-2.5,16.4-1.3
		c5.9,2.9,7.6,9.8,18.3,8.4"/>
	<path class="st0" d="M80.5,106.7c-7.3,3.7-15.6,5.7-24.4,5.7C26,112.4,1.5,88,1.5,57.8C1.5,29,23.8,5.4,52.2,3.4"/>
</g>
<g>
	<path class="st1" d="M3,149.9v-0.2l0.4-0.2c0.3-0.1,0.5-0.2,0.5-0.4s0.1-0.4,0.1-0.6v-10.4c0-0.3,0-0.5-0.1-0.6s-0.3-0.3-0.5-0.4
		L3,136.9v-0.2h5.1v0.2l-0.4,0.2c-0.3,0.1-0.4,0.2-0.5,0.4s-0.1,0.4-0.1,0.7v11.4h3.1c0.5,0,0.9-0.1,1.1-0.4c0.2-0.2,0.5-0.6,0.7-1
		l0.8-1.7H13l-0.2,3.5H3V149.9z"/>
	<path class="st1" d="M17.6,150.2c-0.5,0-1-0.1-1.4-0.3s-0.8-0.5-1-1c-0.2-0.4-0.4-1-0.4-1.8l0.1-5.1c0-0.3-0.1-0.5-0.2-0.7
		c-0.1-0.1-0.3-0.2-0.5-0.3l-0.2-0.1v-0.2l3.6-0.7l0.2,0.2l-0.1,2.8v4.8c0,0.4,0.1,0.7,0.4,0.9c0.2,0.2,0.6,0.3,0.9,0.3
		c0.4,0,0.7-0.1,1-0.2c0.3-0.1,0.6-0.3,0.9-0.5l0.1-6.5c0-0.3,0-0.5-0.1-0.6s-0.3-0.2-0.5-0.3l-0.2-0.1v-0.2l3.5-0.8l0.2,0.2
		l-0.1,2.8v5.4c0,0.3,0,0.5,0.1,0.7s0.3,0.3,0.5,0.4l0.2,0.1v0.2l-3.5,0.2l-0.2-1.2c-0.4,0.4-0.9,0.7-1.4,0.9
		C18.9,150.1,18.3,150.2,17.6,150.2z"/>
	<path class="st1" d="M25.8,149.9v-0.2l0.3-0.1c0.5-0.1,0.7-0.5,0.7-1v-6.3c0-0.3,0-0.5-0.1-0.6s-0.3-0.2-0.5-0.3l-0.3-0.1v-0.2
		l3.4-1.2l0.2,0.2l0.2,1.2c0.5-0.4,1-0.8,1.6-1c0.6-0.3,1.2-0.4,1.7-0.4c0.9,0,1.6,0.2,2,0.7c0.5,0.5,0.7,1.2,0.7,2.2v5.8
		c0,0.5,0.3,0.8,0.8,1l0.2,0.1v0.2H32v-0.2l0.3-0.1c0.5-0.1,0.7-0.5,0.7-1v-6.3c0-0.9-0.4-1.3-1.3-1.3c-0.6,0-1.2,0.3-1.9,0.9v6.8
		c0,0.5,0.2,0.8,0.7,1l0.2,0.1v0.2L25.8,149.9L25.8,149.9z"/>
	<path class="st1" d="M40.7,150.2c-0.8,0-1.4-0.2-2-0.7c-0.5-0.4-0.8-1.1-0.8-1.9c0-0.6,0.3-1.2,1-1.7c0.6-0.5,1.6-0.9,3-1.2
		c0.2,0,0.5-0.1,0.7-0.1c0.3,0,0.5-0.1,0.8-0.1v-1.6c0-0.9-0.1-1.5-0.3-1.9c-0.2-0.4-0.6-0.5-1-0.5c-0.3,0-0.6,0.1-0.8,0.3
		c-0.2,0.2-0.3,0.6-0.4,1.1v0.2c0,0.6-0.2,1-0.4,1.3c-0.3,0.3-0.6,0.4-0.9,0.4s-0.6-0.1-0.9-0.3c-0.2-0.2-0.3-0.5-0.3-0.9
		c0-0.5,0.2-1,0.6-1.4s0.9-0.7,1.5-0.8c0.6-0.2,1.3-0.3,2-0.3c1.2,0,2.1,0.3,2.8,0.9c0.6,0.6,1,1.5,1,2.8v4.4c0,0.6,0.3,0.9,0.8,0.9
		h0.4l0.2,0.2c-0.3,0.3-0.5,0.6-0.8,0.7s-0.7,0.3-1.3,0.3c-0.6,0-1-0.1-1.4-0.4c-0.3-0.3-0.6-0.6-0.7-1.1c-0.4,0.4-0.8,0.8-1.2,1.1
		C41.9,150.1,41.3,150.2,40.7,150.2z M41.9,149c0.3,0,0.5-0.1,0.8-0.2c0.2-0.1,0.5-0.3,0.8-0.6v-3.4c-0.1,0-0.3,0.1-0.4,0.1
		s-0.3,0.1-0.5,0.1c-0.6,0.2-1.1,0.4-1.5,0.8c-0.4,0.4-0.5,0.9-0.5,1.5c0,0.5,0.1,1,0.4,1.2C41.2,148.9,41.5,149,41.9,149z"/>
	<path class="st1" d="M48.6,149.9v-0.2l0.3-0.1c0.3-0.1,0.5-0.2,0.5-0.4c0.1-0.2,0.2-0.4,0.2-0.6v-6.3c0-0.3-0.1-0.5-0.2-0.6
		s-0.3-0.2-0.5-0.3l-0.3-0.1v-0.2l3.4-1.2l0.2,0.2l0.2,1.7v0.2c0.2-0.4,0.4-0.7,0.7-1c0.3-0.3,0.6-0.6,1-0.8s0.7-0.3,1.1-0.3
		c0.5,0,0.9,0.1,1.2,0.4s0.4,0.6,0.4,1.1s-0.1,0.8-0.4,1s-0.6,0.4-0.9,0.4c-0.6,0-1.1-0.3-1.5-0.8l0,0c-0.1-0.2-0.3-0.3-0.5-0.3
		s-0.3,0.1-0.5,0.2c-0.1,0.1-0.2,0.3-0.3,0.4c-0.1,0.2-0.2,0.4-0.2,0.6v5.6c0,0.5,0.2,0.9,0.7,1l0.6,0.2v0.2L48.6,149.9L48.6,149.9z
		"/>
	<path class="st1" d="M62.8,149.9v-0.2l0.4-0.1c0.3-0.1,0.4-0.2,0.5-0.4s0.1-0.4,0.1-0.6v-10.5c0-0.3,0-0.5-0.1-0.6
		c-0.1-0.2-0.3-0.3-0.5-0.4l-0.4-0.2v-0.2h4.9c2,0,3.4,0.4,4.3,1.1c0.9,0.7,1.3,1.7,1.3,2.9c0,0.8-0.2,1.5-0.6,2.1s-1,1.1-1.8,1.5
		s-2,0.6-3.4,0.6h-0.7v3.7c0,0.5,0.3,0.9,0.8,1l0.6,0.2v0.2h-5.4V149.9z M66.8,144.5h0.8c0.7,0,1.2-0.1,1.6-0.3s0.7-0.6,0.9-1.1
		s0.3-1.3,0.3-2.2c0-1-0.1-1.7-0.3-2.2s-0.5-0.9-1-1.1c-0.4-0.2-1-0.3-1.6-0.3h-0.7C66.8,137.3,66.8,144.5,66.8,144.5z"/>
	<path class="st1" d="M74.4,149.9v-0.2l0.2-0.1c0.5-0.2,0.7-0.5,0.7-1v-10.7c0-0.3,0-0.5-0.1-0.6s-0.3-0.2-0.5-0.3l-0.3-0.1v-0.2
		l3.5-0.9l0.3,0.2l-0.1,2.8v2.5c0.5-0.4,1-0.7,1.5-1s1.1-0.4,1.8-0.4c0.9,0,1.6,0.2,2.1,0.7s0.8,1.3,0.8,2.3v5.6
		c0,0.3,0.1,0.5,0.2,0.6c0.1,0.2,0.3,0.3,0.6,0.4l0.2,0.1v0.2h-4.7v-0.2l0.2-0.1c0.5-0.2,0.7-0.5,0.7-1v-6.3c0-0.5-0.1-0.9-0.3-1.1
		c-0.2-0.2-0.5-0.3-1-0.3c-0.3,0-0.6,0.1-1,0.2c-0.3,0.1-0.7,0.3-1.1,0.6v7c0,0.5,0.2,0.9,0.7,1H79v0.2h-4.6V149.9z"/>
	<path class="st1" d="M89.2,150.2c-0.8,0-1.4-0.2-2-0.7c-0.5-0.4-0.8-1.1-0.8-1.9c0-0.6,0.3-1.2,1-1.7c0.6-0.5,1.6-0.9,3-1.2
		c0.2,0,0.5-0.1,0.7-0.1c0.3,0,0.5-0.1,0.8-0.1v-1.6c0-0.9-0.1-1.5-0.3-1.9s-0.6-0.5-1-0.5c-0.3,0-0.6,0.1-0.8,0.3s-0.3,0.6-0.4,1.1
		v0.2c0,0.6-0.2,1-0.4,1.3c-0.3,0.3-0.6,0.4-0.9,0.4c-0.3,0-0.6-0.1-0.9-0.3c-0.2-0.2-0.3-0.5-0.3-0.9c0-0.5,0.2-1,0.6-1.4
		c0.4-0.4,0.9-0.7,1.5-0.8c0.6-0.2,1.3-0.3,2-0.3c1.2,0,2.1,0.3,2.8,0.9c0.6,0.6,1,1.5,1,2.8v4.4c0,0.6,0.3,0.9,0.8,0.9H96l0.2,0.2
		c-0.3,0.3-0.5,0.6-0.8,0.7s-0.7,0.3-1.3,0.3s-1-0.1-1.4-0.4c-0.3-0.3-0.6-0.6-0.7-1.1c-0.4,0.4-0.8,0.8-1.2,1.1
		C90.4,150.1,89.9,150.2,89.2,150.2z M90.4,149c0.3,0,0.5-0.1,0.8-0.2c0.2-0.1,0.5-0.3,0.8-0.6v-3.4c-0.1,0-0.3,0.1-0.4,0.1
		c-0.1,0-0.3,0.1-0.5,0.1c-0.6,0.2-1.1,0.4-1.5,0.8c-0.4,0.4-0.5,0.9-0.5,1.5c0,0.5,0.1,1,0.4,1.2C89.8,148.9,90.1,149,90.4,149z"/>
	<path class="st1" d="M100.6,150.2c-0.7,0-1.2-0.1-1.8-0.2c-0.5-0.2-1-0.3-1.4-0.6V147h0.2l0.7,1.2c0.3,0.5,0.6,0.9,1,1.2
		s0.8,0.4,1.3,0.4c0.6,0,1.2-0.1,1.5-0.4s0.6-0.7,0.6-1.2c0-0.4-0.1-0.8-0.4-1.1c-0.3-0.3-0.8-0.5-1.6-0.8l-0.8-0.3
		c-0.8-0.2-1.5-0.6-1.9-1.1c-0.5-0.5-0.7-1.1-0.7-1.9c0-0.9,0.3-1.6,1-2.2s1.7-0.9,3-0.9c0.5,0,1,0.1,1.5,0.2s0.9,0.3,1.3,0.5
		l-0.1,2.2h-0.2l-0.7-1.2c-0.3-0.4-0.5-0.8-0.8-0.9s-0.6-0.3-1.1-0.3s-0.9,0.1-1.3,0.4c-0.4,0.3-0.6,0.6-0.6,1.1s0.2,0.8,0.5,1.1
		s0.8,0.5,1.5,0.7l0.9,0.3c1,0.3,1.6,0.7,2.1,1.2c0.4,0.5,0.6,1.1,0.6,1.9c0,1-0.4,1.8-1.2,2.3S102,150.2,100.6,150.2z"/>
	<path class="st1" d="M111.4,140c0.9,0,1.6,0.2,2.2,0.5c0.6,0.4,1.1,0.8,1.4,1.4c0.3,0.6,0.5,1.3,0.5,2.1c0,0.1,0,0.3,0,0.4
		c0,0.2,0,0.3-0.1,0.4h-6c0,1.4,0.3,2.5,0.8,3.1s1.2,1,2.2,1c0.7,0,1.2-0.1,1.6-0.3s0.8-0.5,1.2-0.9l0.2,0.2c-0.4,0.7-1,1.3-1.7,1.7
		s-1.5,0.6-2.5,0.6c-0.9,0-1.8-0.2-2.5-0.6c-0.7-0.4-1.3-1-1.7-1.8s-0.6-1.7-0.6-2.7c0-1.1,0.2-2,0.7-2.8s1.1-1.4,1.8-1.8
		C109.8,140.2,110.6,140,111.4,140z M111.3,140.4c-0.4,0-0.7,0.1-1,0.4s-0.5,0.6-0.6,1.2c-0.2,0.6-0.2,1.4-0.2,2.5h3.4
		c0.1-1.5,0.1-2.5-0.2-3.1S112,140.4,111.3,140.4z"/>
</g>
</svg>
