<svg id="Capa_1" enable-background="new 0 0 510.982 510.982" height="512" viewBox="0 0 510.982 510.982" width="512" xmlns="http://www.w3.org/2000/svg"><g><g><path d="m255.491 51.632c87.394 0 161.587 60.355 181.627 142.46l-30.372-21.428-17.294 24.514 71.258 50.271 50.273-71.257-24.514-17.295-20.104 28.496c-23.106-95.506-109.308-165.761-210.874-165.761-57.954 0-112.438 22.568-153.417 63.547s-63.547 95.464-63.547 153.417h30c0-103.092 83.872-186.964 186.964-186.964z"/></g><g><path d="m255.491 459.351c-87.394 0-161.587-60.355-181.627-142.46l30.372 21.428 17.294-24.514-71.258-50.271-50.272 71.256 24.514 17.295 20.104-28.496c23.106 95.507 109.309 165.762 210.874 165.762 57.954 0 112.438-22.568 153.417-63.547s63.547-95.464 63.547-153.417h-30c0 103.092-83.873 186.964-186.965 186.964z"/></g><g><path d="m255.491 147.482-9.507 7.79c-2.993 2.453-73.305 60.763-73.305 121.022 0 45.663 37.149 82.812 82.813 82.812s82.812-37.149 82.812-82.812c0-60.26-70.312-118.569-73.305-121.022zm52.813 128.813c0 29.121-23.691 52.812-52.812 52.812s-52.813-23.691-52.813-52.812c0-32.43 32.408-70.009 52.813-89.352 20.404 19.343 52.812 56.922 52.812 89.352z"/></g></g></svg>