<?xml version="1.0" encoding="utf-8"?>
<!-- Generator: Adobe Illustrator 23.0.2, SVG Export Plug-In . SVG Version: 6.00 Build 0)  -->
<svg version="1.1" id="圖層_1" xmlns="http://www.w3.org/2000/svg" xmlns:xlink="http://www.w3.org/1999/xlink" x="0px" y="0px"
	 viewBox="0 0 1440 210" style="enable-background:new 0 0 1440 210;" xml:space="preserve">
<style type="text/css">
	.st0{clip-path:url(#SVGID_2_);fill:url(#Path_268_1_);}
</style>
<g>
	<g>
		<defs>
			<rect id="SVGID_1_" width="1440" height="210"/>
		</defs>
		<clipPath id="SVGID_2_">
			<use xlink:href="#SVGID_1_"  style="overflow:visible;"/>
		</clipPath>
		
			<linearGradient id="Path_268_1_" gradientUnits="userSpaceOnUse" x1="640.0483" y1="2.6242" x2="640.0483" y2="3.6247" gradientTransform="matrix(1658.0901 0 0 164.9991 -1060537.625 -387.9782)">
			<stop  offset="0" style="stop-color:#FDD2BB"/>
			<stop  offset="1" style="stop-color:#FFFFFF;stop-opacity:0"/>
		</linearGradient>
		<path id="Path_268" class="st0" d="M-109,210c36.4-29.3,101.4-92.9,155-88.1c34.3,3.1,63.7,21.1,98.1,23.7
			c33.1,2.5,64.6-9.7,94.1-21c58.4-22.4,118.1-42.7,179.2-61c28.5-8.5,57.7-16.7,88.4-18.3C550.4,43,594,54.6,636,66.1
			c57.8,15.8,115.5,31.6,173.2,47.4c25.7,7,52.9,14.2,79.9,10.7c38.3-5,67.1-30.1,105.4-35.3c43.1-5.8,83.3,14.9,120.1,32.4
			s84.4,32.9,122.5,17.1c17.8-7.4,31.9-21.3,51.4-24c20.3-2.8,41,1.9,60.4,7.7c70.4,20.8,132.4,60.6,200.2,88L-109,210z"/>
	</g>
</g>
</svg>
