<?xml version="1.0" encoding="utf-8"?>
<!-- Generator: Adobe Illustrator 23.0.2, SVG Export Plug-In . SVG Version: 6.00 Build 0)  -->
<svg version="1.1" id="圖層_1" xmlns="http://www.w3.org/2000/svg" xmlns:xlink="http://www.w3.org/1999/xlink" x="0px" y="0px"
	 viewBox="0 0 1658.1 165" style="enable-background:new 0 0 1658.1 165;" xml:space="preserve">
<style type="text/css">
	.st0{fill:url(#Path_268_1_);}
</style>
<linearGradient id="Path_268_1_" gradientUnits="userSpaceOnUse" x1="429.2413" y1="381.6848" x2="429.2413" y2="380.6848" gradientTransform="matrix(1658.0901 0 0 -164.9991 -710891.625 62977.6719)">
	<stop  offset="0" style="stop-color:#F3F3EE"/>
	<stop  offset="1" style="stop-color:#FFFFFF;stop-opacity:0"/>
</linearGradient>
<path id="Path_268" class="st0" d="M0,165c36.4-29.3,101.4-92.9,155-88.1c34.3,3.1,63.7,21.1,98.1,23.7c33.1,2.5,64.6-9.7,94.1-21
	c58.4-22.4,118.1-42.7,179.2-61c28.5-8.5,57.7-16.7,88.4-18.3c44.7-2.3,88.3,9.3,130.3,20.8c57.8,15.8,115.5,31.6,173.2,47.4
	c25.7,7,52.9,14.2,79.9,10.7c38.3-5,67.1-30.1,105.4-35.3c43.1-5.8,83.3,14.9,120.1,32.4s84.4,32.9,122.5,17.1
	c17.8-7.4,31.9-21.3,51.4-24c20.3-2.8,41,1.9,60.4,7.7c70.4,20.8,132.4,60.6,200.2,88L0,165z"/>
</svg>
