<svg id="Layer_1" enable-background="new 0 0 511.934 511.934" height="512" viewBox="0 0 511.934 511.934" width="512" xmlns="http://www.w3.org/2000/svg"><path d="m450.828 136.912c-19.956-20.139-45.657-32.585-73.437-35.787-9.594-57.125-63.438-102.109-121.572-101.109-58.133-1.001-111.997 43.996-121.574 101.128-60.524 6.001-110.263 61.723-109.074 122.767-1.31 81.089 81.783 143.055 158.439 118.201 16.721 12.522 36.514 20.484 57.19 23.096v131.784c.794 19.93 29.255 19.915 30.042 0v-131.777c20.534-2.595 40.2-10.468 56.849-22.844 123.067 35.035 211.936-114.161 123.137-205.459zm-251.788 179.167c-15.779-12.745-26.931-30.582-31.402-50.222-.287-1.257.252-2.169.754-2.714.375-.508 1.698-1.277 2.848-1.032 21.604 3.092 38.355 11.228 49.786 24.178 10.454 11.845 16.803 28.103 18.951 48.469-14.943-2.61-28.88-8.939-40.937-18.679zm69.072-49.848c-4.745 5.366-8.862 11.299-12.378 17.758-5.431-9.945-12.288-18.589-20.518-25.853 2.032-12.659 7.987-25.183 18.11-38.073.753-.958 1.744-1.162 2.448-1.162h.016c.695.003 1.679.206 2.415 1.16 9.887 12.808 15.675 25.458 17.602 38.465-2.704 2.42-5.281 4.976-7.695 7.705zm32.012 11.118c.201-.142.397-.289.591-.44 10.444-7.623 23.65-12.546 39.692-14.815 1.152-.245 2.471.526 2.847 1.034.502.545 1.04 1.458.754 2.714-4.469 19.644-15.621 37.485-31.401 50.233-12.068 9.75-26.015 16.082-40.972 18.69 2.669-26.132 12.105-45.172 28.489-57.416zm62.888 40.137c-3.006 0-6.41-.24-9.99-.677 9.66-13.2 16.637-28.295 20.28-44.305 5.364-22.231-14.546-43.656-37.102-40.156-12.224 1.729-23.362 4.78-33.391 9.099-3.88-13.574-10.769-26.719-20.823-39.742-6.268-8.12-15.771-12.801-26.071-12.844h-.143c-10.258 0-19.755 4.605-26.071 12.648-10.331 13.156-17.415 26.318-21.415 39.794-9.851-4.204-20.785-7.212-32.788-8.93-10.848-1.555-21.761 2.339-29.198 10.414-7.393 8.024-10.367 19.141-7.953 29.74 3.64 15.988 10.608 31.062 20.25 44.248-87.014 9.586-137.756-96.675-76.33-158.672 17.387-17.571 40.552-27.418 65.246-27.748 15.649-.002 31.14 3.895 44.788 11.315 7.148 3.924 16.389 1.331 20.369-6.029 3.96-7.289 1.261-16.41-6.029-20.369-12.947-7.033-27.14-11.668-41.753-13.726 4.273-17.672 13.625-33.79 27.174-46.408 34.376-33.217 93.137-33.215 127.513-.001 16.986 15.819 27.394 37.133 29.43 60.124 0 15.627-3.906 31.092-11.311 44.721-3.96 7.289-1.261 16.41 6.029 20.369 7.148 3.924 16.389 1.331 20.369-6.029 7.2-13.254 11.892-27.813 13.872-42.793 19.463 3.11 37.395 12.269 51.523 26.527 58.31 58.363 16.05 159.634-66.475 159.43z"/></svg>