<?xml version="1.0" encoding="utf-8"?>
<!-- Generator: Adobe Illustrator 23.0.2, SVG Export Plug-In . SVG Version: 6.00 Build 0)  -->
<svg version="1.1" id="圖層_1" xmlns="http://www.w3.org/2000/svg" xmlns:xlink="http://www.w3.org/1999/xlink" x="0px" y="0px"
	 viewBox="0 0 461 463" style="enable-background:new 0 0 461 463;" xml:space="preserve">
<style type="text/css">
	.st0{fill:url(#SVGID_1_);}
	.st1{fill:url(#SVGID_2_);}
	.st2{fill:url(#SVGID_3_);}
	.st3{fill:url(#SVGID_4_);}
	.st4{fill:url(#SVGID_5_);}
	.st5{fill:url(#SVGID_6_);}
	.st6{fill:url(#SVGID_7_);}
	.st7{fill:url(#SVGID_8_);}
	.st8{fill:url(#SVGID_9_);}
	.st9{fill:url(#SVGID_10_);}
	.st10{fill:url(#SVGID_11_);}
	.st11{fill:url(#SVGID_12_);}
	.st12{fill:url(#SVGID_13_);}
	.st13{fill:url(#SVGID_14_);}
	.st14{fill:url(#SVGID_15_);}
	.st15{fill:url(#SVGID_16_);}
</style>
<g>
	<linearGradient id="SVGID_1_" gradientUnits="userSpaceOnUse" x1="228.8496" y1="-149.7602" x2="228.8496" y2="459.2584">
		<stop  offset="0" style="stop-color:#FFFFFF"/>
		<stop  offset="3.278255e-02" style="stop-color:#FFFDFC;stop-opacity:0.9771"/>
		<stop  offset="0.4448" style="stop-color:#FEE6D9;stop-opacity:0.6887"/>
		<stop  offset="0.7819" style="stop-color:#FDD7C3;stop-opacity:0.4527"/>
		<stop  offset="1" style="stop-color:#FDD2BB;stop-opacity:0.3"/>
	</linearGradient>
	<path class="st0" d="M252.2,432.5c-0.1,13.4-10.1,23.4-23.3,23.4c-13.1,0-23.5-10.4-23.4-23.5c0-13.2,10.6-23.6,23.9-23.4
		C242.2,409.1,252.2,419.4,252.2,432.5z"/>
	<g>
		
			<linearGradient id="SVGID_2_" gradientUnits="userSpaceOnUse" x1="228.7504" y1="-149.7602" x2="228.7504" y2="459.2584" gradientTransform="matrix(1 0 0 1 0 -136)">
			<stop  offset="0" style="stop-color:#FFFFFF"/>
			<stop  offset="3.278255e-02" style="stop-color:#FFFDFC;stop-opacity:0.9771"/>
			<stop  offset="0.4448" style="stop-color:#FEE6D9;stop-opacity:0.6887"/>
			<stop  offset="0.7819" style="stop-color:#FDD7C3;stop-opacity:0.4527"/>
			<stop  offset="1" style="stop-color:#FDD2BB;stop-opacity:0.3"/>
		</linearGradient>
		<path class="st1" d="M228.9,53.4C228.9,53.4,228.8,53.4,228.9,53.4c-13.5,0-24-10.6-24-24c0-6.5,2.5-12.5,7-17
			c4.6-4.5,10.8-7,17.4-6.9c13.1,0.1,23.4,10.7,23.3,24C252.6,43.1,242.4,53.4,228.9,53.4z M229.1,6.5c-6.3,0-12.1,2.3-16.4,6.6
			c-4.3,4.3-6.7,10.1-6.7,16.3c0,12.9,10.1,23,22.9,23l0,0c12.9,0,22.7-9.8,22.8-22.9h0.5h-0.5c0.1-12.8-9.7-22.9-22.3-23
			C229.2,6.5,229.2,6.5,229.1,6.5z"/>
	</g>
	<linearGradient id="SVGID_3_" gradientUnits="userSpaceOnUse" x1="313.9004" y1="-149.7602" x2="313.9004" y2="459.2584">
		<stop  offset="0" style="stop-color:#FFFFFF"/>
		<stop  offset="3.278255e-02" style="stop-color:#FFFDFC;stop-opacity:0.9771"/>
		<stop  offset="0.4448" style="stop-color:#FEE6D9;stop-opacity:0.6887"/>
		<stop  offset="0.7819" style="stop-color:#FDD7C3;stop-opacity:0.4527"/>
		<stop  offset="1" style="stop-color:#FDD2BB;stop-opacity:0.3"/>
	</linearGradient>
	<path class="st2" d="M312.6,439.9c-11.5,0-20.7-10.4-20.8-23.4c0-13.2,9.3-23.6,21.1-23.5c12.9,0.1,23.2,10.7,23.1,23.8
		C335.8,429.6,325.3,439.9,312.6,439.9z"/>
	<linearGradient id="SVGID_4_" gradientUnits="userSpaceOnUse" x1="380.3873" y1="-149.7602" x2="380.3873" y2="459.2584">
		<stop  offset="0" style="stop-color:#FFFFFF"/>
		<stop  offset="3.278255e-02" style="stop-color:#FFFDFC;stop-opacity:0.9771"/>
		<stop  offset="0.4448" style="stop-color:#FEE6D9;stop-opacity:0.6887"/>
		<stop  offset="0.7819" style="stop-color:#FDD7C3;stop-opacity:0.4527"/>
		<stop  offset="1" style="stop-color:#FDD2BB;stop-opacity:0.3"/>
	</linearGradient>
	<path class="st3" d="M399.6,368.5c0,11.8-8.8,21.7-20.2,23.2c-6.1,0.8-10.7-1.3-13.6-6.5c-6.1-11-6.2-22.2-0.1-33.3
		c3.4-6.3,8.4-8.1,15.5-6.4C392.2,348,399.6,357.3,399.6,368.5z"/>
	<linearGradient id="SVGID_5_" gradientUnits="userSpaceOnUse" x1="425.4063" y1="-149.7602" x2="425.4063" y2="459.2584">
		<stop  offset="0" style="stop-color:#FFFFFF"/>
		<stop  offset="3.278255e-02" style="stop-color:#FFFDFC;stop-opacity:0.9771"/>
		<stop  offset="0.4448" style="stop-color:#FEE6D9;stop-opacity:0.6887"/>
		<stop  offset="0.7819" style="stop-color:#FDD7C3;stop-opacity:0.4527"/>
		<stop  offset="1" style="stop-color:#FDD2BB;stop-opacity:0.3"/>
	</linearGradient>
	<path class="st4" d="M407.9,304.2c0-6.6,1.1-13,4.7-18.7c2.2-3.5,5.2-4.9,9.3-4.5c12.2,1.1,21.5,11.8,21,24.6
		c-0.4,12-10.5,22.1-22.4,22.4c-3.7,0.1-6.2-1.7-8-4.7C408.8,317.4,407.8,310.9,407.9,304.2z"/>
	<linearGradient id="SVGID_6_" gradientUnits="userSpaceOnUse" x1="443.4504" y1="-149.7602" x2="443.4504" y2="459.2584">
		<stop  offset="0" style="stop-color:#FFFFFF"/>
		<stop  offset="3.278255e-02" style="stop-color:#FFFDFC;stop-opacity:0.9771"/>
		<stop  offset="0.4448" style="stop-color:#FEE6D9;stop-opacity:0.6887"/>
		<stop  offset="0.7819" style="stop-color:#FDD7C3;stop-opacity:0.4527"/>
		<stop  offset="1" style="stop-color:#FDD2BB;stop-opacity:0.3"/>
	</linearGradient>
	<path class="st5" d="M456,231.1c-0.1,11.8-9.4,22.2-20.6,23.3c-2.7,0.2-4.5-0.2-4.5-3.3c0-13.4,0-26.8,0-40.2c0-3,1.9-3.6,4.6-3.2
		C446.8,209,456.1,219.5,456,231.1z"/>
	<linearGradient id="SVGID_7_" gradientUnits="userSpaceOnUse" x1="376.1774" y1="-149.7602" x2="376.1774" y2="459.2584">
		<stop  offset="0" style="stop-color:#FFFFFF"/>
		<stop  offset="3.278255e-02" style="stop-color:#FFFDFC;stop-opacity:0.9771"/>
		<stop  offset="0.4448" style="stop-color:#FEE6D9;stop-opacity:0.6887"/>
		<stop  offset="0.7819" style="stop-color:#FDD7C3;stop-opacity:0.4527"/>
		<stop  offset="1" style="stop-color:#FDD2BB;stop-opacity:0.3"/>
	</linearGradient>
	<path class="st6" d="M361.8,111.6c19.3-10.1,19.4-34.6-0.3-44.8c8.8-3,19,0.6,25,8.8c6,8.3,5.8,20-0.6,28.1
		C380.1,111.2,369.8,114.5,361.8,111.6z"/>
	<linearGradient id="SVGID_8_" gradientUnits="userSpaceOnUse" x1="423.1774" y1="-149.7602" x2="423.1774" y2="459.2584">
		<stop  offset="0" style="stop-color:#FFFFFF"/>
		<stop  offset="3.278255e-02" style="stop-color:#FFFDFC;stop-opacity:0.9771"/>
		<stop  offset="0.4448" style="stop-color:#FEE6D9;stop-opacity:0.6887"/>
		<stop  offset="0.7819" style="stop-color:#FDD7C3;stop-opacity:0.4527"/>
		<stop  offset="1" style="stop-color:#FDD2BB;stop-opacity:0.3"/>
	</linearGradient>
	<path class="st7" d="M408.8,176.6C421,164,420,143,408.5,131.7c8.8-3,19,0.6,25,8.8c6,8.3,5.8,20-0.6,28.1
		C427.1,176.2,416.8,179.5,408.8,176.6z"/>
	<linearGradient id="SVGID_9_" gradientUnits="userSpaceOnUse" x1="309.1714" y1="-149.7602" x2="309.1714" y2="459.2584">
		<stop  offset="0" style="stop-color:#FFFFFF"/>
		<stop  offset="3.278255e-02" style="stop-color:#FFFDFC;stop-opacity:0.9771"/>
		<stop  offset="0.4448" style="stop-color:#FEE6D9;stop-opacity:0.6887"/>
		<stop  offset="0.7819" style="stop-color:#FDD7C3;stop-opacity:0.4527"/>
		<stop  offset="1" style="stop-color:#FDD2BB;stop-opacity:0.3"/>
	</linearGradient>
	<path class="st8" d="M297.4,68.1c11.1-4.3,17.3-11.5,17.6-22.3c0.4-11.6-5.8-19.3-16.7-23.8c11.3-1.1,21.9,9.4,22.6,22
		C321.7,56.7,311.2,68,297.4,68.1z"/>
	<linearGradient id="SVGID_10_" gradientUnits="userSpaceOnUse" x1="145.8996" y1="-149.7602" x2="145.8996" y2="459.2584">
		<stop  offset="0" style="stop-color:#FFFFFF"/>
		<stop  offset="3.278255e-02" style="stop-color:#FFFDFC;stop-opacity:0.9771"/>
		<stop  offset="0.4448" style="stop-color:#FEE6D9;stop-opacity:0.6887"/>
		<stop  offset="0.7819" style="stop-color:#FDD7C3;stop-opacity:0.4527"/>
		<stop  offset="1" style="stop-color:#FDD2BB;stop-opacity:0.3"/>
	</linearGradient>
	<path class="st9" d="M147.2,439.9c11.5,0,20.7-10.4,20.8-23.4c0-13.2-9.3-23.6-21.1-23.5c-12.9,0.1-23.2,10.7-23.1,23.8
		C124,429.6,134.4,439.9,147.2,439.9z"/>
	<linearGradient id="SVGID_11_" gradientUnits="userSpaceOnUse" x1="79.4122" y1="-149.7602" x2="79.4122" y2="459.2584">
		<stop  offset="0" style="stop-color:#FFFFFF"/>
		<stop  offset="3.278255e-02" style="stop-color:#FFFDFC;stop-opacity:0.9771"/>
		<stop  offset="0.4448" style="stop-color:#FEE6D9;stop-opacity:0.6887"/>
		<stop  offset="0.7819" style="stop-color:#FDD7C3;stop-opacity:0.4527"/>
		<stop  offset="1" style="stop-color:#FDD2BB;stop-opacity:0.3"/>
	</linearGradient>
	<path class="st10" d="M60.2,368.5c0,11.8,8.8,21.7,20.2,23.2c6.1,0.8,10.7-1.3,13.6-6.5c6.1-11,6.2-22.2,0.1-33.3
		c-3.4-6.3-8.4-8.1-15.5-6.4C67.6,348,60.1,357.3,60.2,368.5z"/>
	<linearGradient id="SVGID_12_" gradientUnits="userSpaceOnUse" x1="34.3937" y1="-149.7602" x2="34.3937" y2="459.2584">
		<stop  offset="0" style="stop-color:#FFFFFF"/>
		<stop  offset="3.278255e-02" style="stop-color:#FFFDFC;stop-opacity:0.9771"/>
		<stop  offset="0.4448" style="stop-color:#FEE6D9;stop-opacity:0.6887"/>
		<stop  offset="0.7819" style="stop-color:#FDD7C3;stop-opacity:0.4527"/>
		<stop  offset="1" style="stop-color:#FDD2BB;stop-opacity:0.3"/>
	</linearGradient>
	<path class="st11" d="M51.9,304.2c0-6.6-1.1-13-4.7-18.7c-2.2-3.5-5.2-4.9-9.3-4.5c-12.2,1.1-21.5,11.8-21,24.6
		c0.4,12,10.5,22.1,22.4,22.4c3.7,0.1,6.2-1.7,8-4.7C51,317.4,52,310.9,51.9,304.2z"/>
	<linearGradient id="SVGID_13_" gradientUnits="userSpaceOnUse" x1="16.3496" y1="-149.7602" x2="16.3496" y2="459.2584">
		<stop  offset="0" style="stop-color:#FFFFFF"/>
		<stop  offset="3.278255e-02" style="stop-color:#FFFDFC;stop-opacity:0.9771"/>
		<stop  offset="0.4448" style="stop-color:#FEE6D9;stop-opacity:0.6887"/>
		<stop  offset="0.7819" style="stop-color:#FDD7C3;stop-opacity:0.4527"/>
		<stop  offset="1" style="stop-color:#FDD2BB;stop-opacity:0.3"/>
	</linearGradient>
	<path class="st12" d="M3.8,231.1c0.1,11.8,9.4,22.2,20.6,23.3c2.7,0.2,4.5-0.2,4.5-3.3c0-13.4,0-26.8,0-40.2c0-3-1.9-3.6-4.6-3.2
		C12.9,209,3.7,219.5,3.8,231.1z"/>
	<linearGradient id="SVGID_14_" gradientUnits="userSpaceOnUse" x1="83.6226" y1="-149.7602" x2="83.6226" y2="459.2584">
		<stop  offset="0" style="stop-color:#FFFFFF"/>
		<stop  offset="3.278255e-02" style="stop-color:#FFFDFC;stop-opacity:0.9771"/>
		<stop  offset="0.4448" style="stop-color:#FEE6D9;stop-opacity:0.6887"/>
		<stop  offset="0.7819" style="stop-color:#FDD7C3;stop-opacity:0.4527"/>
		<stop  offset="1" style="stop-color:#FDD2BB;stop-opacity:0.3"/>
	</linearGradient>
	<path class="st13" d="M98,111.6C78.7,101.5,78.6,77,98.3,66.8c-8.8-3-19,0.6-25,8.8c-6,8.3-5.8,20,0.6,28.1
		C79.7,111.2,90,114.5,98,111.6z"/>
	<linearGradient id="SVGID_15_" gradientUnits="userSpaceOnUse" x1="36.6226" y1="-149.7602" x2="36.6226" y2="459.2584">
		<stop  offset="0" style="stop-color:#FFFFFF"/>
		<stop  offset="3.278255e-02" style="stop-color:#FFFDFC;stop-opacity:0.9771"/>
		<stop  offset="0.4448" style="stop-color:#FEE6D9;stop-opacity:0.6887"/>
		<stop  offset="0.7819" style="stop-color:#FDD7C3;stop-opacity:0.4527"/>
		<stop  offset="1" style="stop-color:#FDD2BB;stop-opacity:0.3"/>
	</linearGradient>
	<path class="st14" d="M51,176.6C38.8,164,39.8,143,51.3,131.7c-8.8-3-19,0.6-25,8.8c-6,8.3-5.8,20,0.6,28.1
		C32.7,176.2,43,179.5,51,176.6z"/>
	<linearGradient id="SVGID_16_" gradientUnits="userSpaceOnUse" x1="150.5335" y1="-149.7602" x2="150.5335" y2="459.2584">
		<stop  offset="0" style="stop-color:#FFFFFF"/>
		<stop  offset="3.278255e-02" style="stop-color:#FFFDFC;stop-opacity:0.9771"/>
		<stop  offset="0.4448" style="stop-color:#FEE6D9;stop-opacity:0.6887"/>
		<stop  offset="0.7819" style="stop-color:#FDD7C3;stop-opacity:0.4527"/>
		<stop  offset="1" style="stop-color:#FDD2BB;stop-opacity:0.3"/>
	</linearGradient>
	<path class="st15" d="M162.3,68.1c-11.1-4.3-17.3-11.5-17.6-22.3c-0.4-11.6,5.8-19.3,16.7-23.8c-11.3-1.1-21.9,9.4-22.6,22
		C138.1,56.7,148.6,68,162.3,68.1z"/>
</g>
</svg>
