<?xml version="1.0" encoding="utf-8"?>
<!-- Generator: Adobe Illustrator 23.0.2, SVG Export Plug-In . SVG Version: 6.00 Build 0)  -->
<svg version="1.1" id="Capa_1" xmlns="http://www.w3.org/2000/svg" xmlns:xlink="http://www.w3.org/1999/xlink" x="0px" y="0px"
	 viewBox="0 0 512 512" style="enable-background:new 0 0 512 512;" xml:space="preserve">
<style type="text/css">
	.st0{fill:#E64B4B;}
</style>
<g>
	<path class="st0" d="M297.5,297v-82c0-22.9-18.6-41.5-41.5-41.5s-41.5,18.6-41.5,41.5v82c0,22.9,18.6,41.5,41.5,41.5
		S297.5,319.9,297.5,297z M229.5,297v-82c0-14.6,11.9-26.5,26.5-26.5c14.6,0,26.5,11.9,26.5,26.5v82c0,14.6-11.9,26.5-26.5,26.5
		C241.4,323.5,229.5,311.6,229.5,297z"/>
	<path class="st0" d="M410.3,180.8l-45-27l2.8-31.5c0.3-3.3,0.4-6.6,0.4-9.8C368.5,50.5,318,0,256,0S143.5,50.5,143.5,112.5
		c0,3.2,0.1,6.5,0.4,9.8l2.8,31.5l-45,27c-11.2,6.7-18.2,19.1-18.2,32.2v86c0,13.1,7,25.4,18.2,32.2l45,27l-2.8,31.5
		c-0.3,3.3-0.4,6.6-0.4,9.8c0,62,50.5,112.5,112.5,112.5s112.5-50.5,112.5-112.5c0-3.2-0.1-6.5-0.4-9.8l-2.8-31.5l45-27
		c11.2-6.7,18.2-19.1,18.2-32.2v-86C428.5,199.9,421.5,187.6,410.3,180.8L410.3,180.8z M413.5,299c0,7.9-4.2,15.3-10.9,19.3
		l-49,29.4c-2.5,1.5-3.9,4.2-3.6,7.1l3.2,36.2c0.2,2.9,0.4,5.7,0.4,8.5c0,53.8-43.7,97.5-97.5,97.5s-97.5-43.7-97.5-97.5
		c0-2.8,0.1-5.6,0.4-8.5l3.2-36.2c0.2-2.9-1.2-5.6-3.6-7.1l-49-29.4c-6.7-4-10.9-11.4-10.9-19.3v-86c0-7.9,4.2-15.3,10.9-19.3
		l49-29.4c2.5-1.5,3.9-4.2,3.6-7.1l-3.2-36.2c-0.2-2.9-0.4-5.7-0.4-8.5c0-53.8,43.7-97.5,97.5-97.5s97.5,43.7,97.5,97.5
		c0,2.8-0.1,5.6-0.4,8.5l-3.2,36.2c-0.2,2.9,1.2,5.6,3.6,7.1l49,29.4c6.7,4,10.9,11.4,10.9,19.3V299z"/>
	<path class="st0" d="M338.2,119.7c0.2-2.4,0.3-4.9,0.3-7.2c0-45.5-37-82.5-82.5-82.5c-16.2,0-31.9,4.7-45.5,13.7
		c-3.5,2.3-4.4,6.9-2.1,10.4c2.3,3.5,6.9,4.4,10.4,2.1C229.9,48.9,242.7,45,256,45c37.2,0,67.5,30.3,67.5,67.5
		c0,1.9-0.1,3.9-0.3,5.9l-9.5,108.2c-1.7,19.5-1.7,39.3,0,58.8l9.5,108.2c0.2,2,0.3,4,0.3,5.9c0,37.2-30.3,67.5-67.5,67.5
		s-67.5-30.3-67.5-67.5c0-1.9,0.1-3.9,0.3-5.9l9.5-108.2c1.7-19.5,1.7-39.3,0-58.8l-9.5-108.2c-0.2-2-0.3-4-0.3-5.9
		c0-13.3,3.9-26.1,11.2-37.2c2.3-3.5,1.3-8.1-2.1-10.4c-3.5-2.3-8.1-1.3-10.4,2.1c-9,13.5-13.7,29.2-13.7,45.5
		c0,2.3,0.1,4.8,0.3,7.2l9.5,108.2c1.6,18.6,1.6,37.6,0,56.2l-9.5,108.2c-0.2,2.5-0.3,4.9-0.3,7.2c0,45.5,37,82.5,82.5,82.5
		s82.5-37,82.5-82.5c0-2.3-0.1-4.8-0.3-7.2l-9.5-108.2c-1.6-18.7-1.6-37.6,0-56.2L338.2,119.7z"/>
</g>
</svg>
