<?xml version="1.0" encoding="utf-8"?>
<!-- Generator: Adobe Illustrator 23.0.2, SVG Export Plug-In . SVG Version: 6.00 Build 0)  -->
<svg version="1.1" id="Layer_1" xmlns="http://www.w3.org/2000/svg" xmlns:xlink="http://www.w3.org/1999/xlink" x="0px" y="0px"
	 viewBox="0 0 512 512" style="enable-background:new 0 0 512 512;" xml:space="preserve">
<style type="text/css">
	.st0{fill:#E64B4B;}
</style>
<g>
	<g>
		<path class="st0" d="M503.9,296.5l-16.6-140.8c-0.5-3.9-3.8-6.9-7.7-6.9h-161c5.5-10.7,3.7-24.1-5.2-33.1
			c-11.1-11.1-29.2-11.1-40.3,0c-5.3,5.3-12,20.7-17.1,34.2c-5.2-13.6-11.8-28.9-17.1-34.2c-11.1-11.1-29.2-11.1-40.3,0
			c-8.9,8.9-10.7,22.4-5.2,33.1h-161c-3.9,0-7.3,2.9-7.7,6.9L8.1,296.5c-0.3,2.3,0.5,4.6,2.1,6.2c0.6,0.7,1.4,1.2,2.2,1.6l0,0
			l186.6,93.3c9.1,4.5,19.3,6.9,29.4,6.9h55.5c10.2,0,20.3-2.4,29.4-6.9l186.6-93.3l0,0c0.8-0.4,1.5-0.9,2.2-1.6
			C503.5,301.1,504.2,298.8,503.9,296.5z M284.1,126.7c2.5-2.5,5.8-3.8,9.2-3.8c3.3,0,6.6,1.3,9.2,3.8c5,5,5,13.3,0,18.3
			c-3.2,3.2-18,9.6-33.7,15.4C274.5,144.7,281,129.9,284.1,126.7z M300,164.4h172.8l2.1,17.6H269.6c-1.6-1.5-3.1-2.7-4.5-3.7
			C274.6,175,289,169.7,300,164.4z M209.6,126.7c2.5-2.5,5.8-3.8,9.2-3.8s6.6,1.3,9.2,3.8c3.2,3.2,9.6,18,15.4,33.7
			c-15.8-5.8-30.6-12.3-33.7-15.4C204.5,140,204.5,131.8,209.6,126.7z M39.2,164.4H212c11,5.3,25.4,10.6,34.8,13.9
			c-1.3,1-2.9,2.2-4.5,3.7H37.2L39.2,164.4z M51.9,306.8c9.9,1.1,21.4,3,33.5,5.9c32.4,7.9,76.2,25.4,106.9,64.3L51.9,306.8z
			 M319.6,377c24.6-31.4,60.4-53,106.5-64.2c12.3-3,23.9-4.9,34-6L319.6,377z M422.9,297.6c-53.8,13-96.2,40.7-122.8,79.9
			c-4.9,7.3-12.9,11.6-21.2,11.6h-45.7c-8.4,0-16.3-4.3-21.2-11.6c-26.6-39.2-69.1-66.8-122.8-79.9c-28-6.8-52-8-64.6-8.1l10.8-92
			H230c-3.8,6.9-6.6,15.3-6.6,25.4c0,4.3,3.5,7.8,7.8,7.8c4.3,0,7.8-3.5,7.8-7.8c0-11.1,4.9-19.6,9.9-25.4h14.3
			c5,5.8,9.9,14.2,9.9,25.4c0,4.3,3.5,7.8,7.8,7.8s7.8-3.5,7.8-7.8c0-10.1-2.8-18.5-6.6-25.4h194.6l10.8,92
			C475,289.6,450.9,290.8,422.9,297.6z"/>
	</g>
</g>
</svg>
