<?xml version="1.0" encoding="utf-8"?>
<!-- Generator: Adobe Illustrator 23.0.2, SVG Export Plug-In . SVG Version: 6.00 Build 0)  -->
<svg version="1.1" id="Capa_1" xmlns="http://www.w3.org/2000/svg" xmlns:xlink="http://www.w3.org/1999/xlink" x="0px" y="0px"
	 viewBox="0 0 512 512" style="enable-background:new 0 0 512 512;" xml:space="preserve">
<style type="text/css">
	.st0{fill:#E64B4B;}
</style>
<g>
	<g>
		<path class="st0" d="M402.7,109.7C393.8,100.8,382,96,369.4,96c-12.6,0-24.3,4.9-33.2,13.7L192.6,253.3l13.3,13.3l-35.5,35.5
			l13.2,13.2c-8.3,10.4-10.8,19.3-13,27.3c-2.4,8.6-4.4,16-14.5,26.1c-10,10-17.5,12.2-26.1,14.5c-9.8,2.7-20.8,5.8-34.4,19.3
			l13.3,13.3c10-10,17.5-12.2,26.1-14.5c9.8-2.7,20.8-5.8,34.4-19.3c13.5-13.5,16.6-24.6,19.3-34.4c1.8-6.5,3.4-12.3,8.4-19
			l13.2,13.2l35.5-35.5l13.3,13.3l143.6-143.6c8.9-8.9,13.7-20.7,13.7-33.2C416.4,130.4,411.5,118.6,402.7,109.7z M210.3,315.3
			l-13.2-13.2l22.1-22.1l13.3,13.3L210.3,315.3z M389.3,163L259.1,293.2l-39.9-39.9l130.2-130.2c5.3-5.3,12.4-8.2,19.9-8.2
			s14.6,2.9,19.9,8.2c5.3,5.3,8.2,12.4,8.2,19.9C397.5,150.5,394.7,157.6,389.3,163z"/>
	</g>
</g>
</svg>
