<svg xmlns="http://www.w3.org/2000/svg" width="403.735" height="93.929" viewBox="0 0 403.735 93.929">
  <g id="Group_329" data-name="Group 329" transform="translate(-60.501 -52.137)">
    <path id="Path_527" data-name="Path 527" d="M73.245,118.15l1.038-10.567-.245-.1c-.387.442-.748.909-1.161,1.325-2.923,2.937-5.844,5.875-8.795,8.784-.938.924-1.952.959-2.681.218-.779-.793-.639-1.791.354-2.761q4.107-3.993,8.2-8.009a9.842,9.842,0,0,0,1.468-1.862c-1.081.656-2.133,1.37-3.255,1.949a9.431,9.431,0,0,1-2.6.931,1.479,1.479,0,0,1-1.242-.675,2.432,2.432,0,0,1,.074-1.615c.064-.192.717-.358,1.023-.268,1.214.361,1.937-.157,1.968-1.413.124-4.915.292-9.83.42-14.744.021-.843-.152-1.693-.088-2.529a2.271,2.271,0,0,1,.584-1.442,25.154,25.154,0,0,1,2.966-2.127,2.186,2.186,0,0,1,1.351-.408,4.316,4.316,0,0,1,1.337.767c-.32.294-.589.7-.966.86a4.2,4.2,0,0,0-2.664,4.808c.563-.432,1.073-.865,1.622-1.239,2.374-1.607,4.113-.907,4.443,1.914.294,2.5.366,5.02.52,7.532.035.551.005,1.106.005,1.658l.32.136c.986-.988,1.947-2,2.971-2.951a4.691,4.691,0,0,1,1.23-.593c.026.5.264,1.154.04,1.491-1.1,1.655-2.3,3.249-3.526,4.816a3.771,3.771,0,0,0-.815,2.571,75.979,75.979,0,0,1-.973,15.665,5.46,5.46,0,0,1-1,2.434,2.855,2.855,0,0,1-2.033.948c-.539-.024-1.2-.738-1.525-1.306a8.245,8.245,0,0,1-.708-2.313C70.558,118.546,71.26,117.929,73.245,118.15ZM70.726,97.525a13.638,13.638,0,0,1,1.911-1.211,1.227,1.227,0,0,1,1.1.269c.149.152-.033.707-.173,1.035-.081.192-.371.3-.57.437-1.781,1.251-2,1.805-1.6,4.127.926-.738,1.862-1.449,3.075.226-.142-4.783.375-9.137-.159-13.511-2.465.446-3.94,1.935-3.792,3.745a12.523,12.523,0,0,1,1.249-.769c.622-.292,1.325-1.285,1.94-.25.546.921-.508,1.247-1.094,1.541A3.267,3.267,0,0,0,70.726,97.525Z" transform="translate(0.291 22.327)" fill="#e64b4b"/>
    <path id="Path_528" data-name="Path 528" d="M84.543,83.684a8.828,8.828,0,0,1-1.306-.606,22.262,22.262,0,0,1,.923-2.375c-1.278-2-.546-4.426-.5-6.765.036-1.7.4-3.386.568-5.082.031-.308-.076-.845-.266-.926-1.206-.508-1.011-1.475-.822-2.384.394-1.893.865-3.769,1.332-5.77a5.814,5.814,0,0,1-1.292.679,6.979,6.979,0,0,1-1.522.028c.18-.475.226-1.114.567-1.4,1.157-.952,2.448-1.743,3.629-2.669a5.55,5.55,0,0,0,1.318-1.5c.4-.679.76-.914,1.4-.306.131.126.371.138.506.263.375.346.943.689,1.005,1.1.048.328-.46.945-.85,1.092a2.645,2.645,0,0,0-1.778,2.094c-.323,1.415-.757,2.805-1.2,4.407.684-.382,1.17-.707,1.7-.933,1.69-.726,3.008-.2,3.578,1.527a8.715,8.715,0,0,1,.522,2.861c-.083,3.32-.154,6.653-.523,9.949-.143,1.29-1.064,2.495-1.508,3.467,2.833,2.064,5.628,4.054,8.361,6.126a8.078,8.078,0,0,1,1.759,2c.945,1.434.764,2.712-.359,3.426-1.007.637-2.3.162-3.263-1.035-1.263-1.567-2.612-3.068-3.944-4.578C91.4,85.03,90.2,83.724,88.9,82.283c-.4.629-.734,1.166-1.08,1.7-1.441,2.211-2.856,4.44-4.348,6.616a5.856,5.856,0,0,1-1.641,1.593,1.885,1.885,0,0,1-2.676-.859c-.463-.907-.119-1.615,1.021-2.206a2.485,2.485,0,0,0,.841-.65C82.211,86.889,83.372,85.28,84.543,83.684Zm1.788-15.8c1.161-.38,1.757-2.135,3.355-.922-.1-.731-.2-1.249-.226-1.771-.062-1.092-.625-1.182-1.477-.8C86.521,65.037,86.13,65.818,86.331,67.884Zm.776,7.639c1.857-.817,2.565-2.275,2.152-4.443C87.668,72.139,86.3,73.3,87.106,75.523ZM89.6,67.509c-.912,1.579-3.2,1.66-2.888,3.861L89.6,69.422Z" transform="translate(13.425 1.542)" fill="#e64b4b"/>
    <path id="Path_529" data-name="Path 529" d="M206.343,118.668v-9.736c-1.28,1.375-2.37,2.6-3.519,3.763a1.81,1.81,0,1,1-2.612-2.5c.266-.306.568-.582.85-.874a57.887,57.887,0,0,0,3.944-4.388c-1.1.631-2.189,1.29-3.312,1.88a11.061,11.061,0,0,1-2.239.935,1.22,1.22,0,0,1-1.707-.9,1.685,1.685,0,0,1,1.442-1.766,12.283,12.283,0,0,0,1.538-.387c-1.218-1.8-1.014-3.652-.883-5.461.266-3.647.622-7.287.922-10.932.033-.4-.128-.814-.066-1.2.074-.465.154-1.092.472-1.327,1.365-1.011,2.812-1.911,4.241-2.837a2.2,2.2,0,0,1,.976-.461,6.015,6.015,0,0,1,1.4.271,5.181,5.181,0,0,1-.691,1.1c-1.368,1.311-2.778,2.583-4.3,3.989L203,89.6a25.546,25.546,0,0,1,2.548-1.1c1.411-.441,2.235-.045,2.526,1.422a46.1,46.1,0,0,1,.717,5.787c.114,1.677.022,3.367.022,4.9.941-.292,1.786-.852,2.194-.624,1.024.57.235,1.482.019,2.256a.248.248,0,0,1-.054.109c-1.864,2.04-1.838,4.485-1.722,7.053.164,3.614.093,7.24.045,10.859a5.951,5.951,0,0,1-.565,2.343,1.672,1.672,0,0,1-3.023.325,10.851,10.851,0,0,1-1.385-2.691C203.926,119.158,204.8,118.495,206.343,118.668Zm.088-21.471a8.532,8.532,0,0,1-2.063,1.206c-1.474.352-1.384,1.406-1.213,2.422a4.227,4.227,0,0,0,.821,1.372C206.8,101.558,206.571,99.456,206.431,97.2Zm-3.284-3.239,3.509-1.695-.285-2.171C203.845,89.918,202.667,91.409,203.147,93.957Zm3.41-.073c-1.968.612-3.529,2.068-3.244,2.926l3.244-1.373Z" transform="translate(99.833 22.072)" fill="#e64b4b"/>
    <path id="Path_530" data-name="Path 530" d="M132.316,72.289c-2.22,1.213-4.348,2.387-6.489,3.534a9.831,9.831,0,0,1-1.89.822c-.249.071-.6-.216-.905-.339.126-.27.18-.637.39-.793,2.738-2.026,5.516-4,8.237-6.051a2.594,2.594,0,0,0,.872-1.434c.3-1.411.325-2.894.719-4.274a13.991,13.991,0,0,1,1.641-3.619c.6-.95,1-.036,1.306.377,1.159-.487,2.246-1.047,3.395-1.408,2.944-.922,4.968.081,5.568,3.082a24.791,24.791,0,0,1,.656,7.717c-.644,5.26-1.733,10.474-2.818,15.669a7.739,7.739,0,0,1-1.9,3.446,3.242,3.242,0,0,1-5.442-1.252,1.794,1.794,0,0,1,.365-1.5,2.077,2.077,0,0,1,1.41-.339c.309.005.615.306.909.468,1.823-2.247,4.809-16.38,4.405-21l-4.416,2.8c.212.4.536.729.532,1.054a4.661,4.661,0,0,0,2,3.576,1.572,1.572,0,0,1,.409,2.313,3.947,3.947,0,0,1-3.844,2.092,4.77,4.77,0,0,1-4.327-2.676A19.429,19.429,0,0,1,132.316,72.289Zm2.769-5c1.266-1.579,4.075-1.479,3.8-4.312a.151.151,0,0,1,.029-.116c.283-.25.572-.494.86-.739.078.332.166.662.23,1,.035.176.031.363.057.708a11.188,11.188,0,0,0,1.5-.947,4.747,4.747,0,0,0,.7-1.056c-.418-.244-.883-.75-1.247-.684a16.518,16.518,0,0,0-3.6,1C135.024,63.16,134.5,64.345,135.085,67.287Zm3.78,6.561c-.862-1.612-2.1-3.034-1.118-5.1-2.968,1.62-3.262,2.216-2.194,4.124A2.261,2.261,0,0,0,138.865,73.848Z" transform="translate(45.492 4.829)" fill="#e64b4b"/>
    <path id="Path_531" data-name="Path 531" d="M291.626,86.612a3.449,3.449,0,0,1,1.187-.53c.451-.012,1.126.142,1.3.451s-.156.9-.28,1.356c-.014.057-.126.105-.2.124-1.747.475-1.569,1.66-1.183,3.009a122.817,122.817,0,0,0,7.853,21.437,16.165,16.165,0,0,0,1.353,2.021,1.6,1.6,0,0,0,.836.613,10.318,10.318,0,0,1-.727-2.1c-.06-.453.3-.962.465-1.448.456.226,1.145.337,1.328.7a27.972,27.972,0,0,1,1.721,4.151c.667,2.116-.513,3.336-2.7,2.918-2.386-.458-3.908-2.1-5.181-3.968-2.408-3.531-3.619-7.6-4.951-11.6-.358-1.069-.675-2.152-1.055-3.37-2.042,1.912-4,3.742-5.948,5.575q-2.223,2.086-4.441,4.182c-.447.42-.988,1-1.5.332-.193-.254.15-1.061.432-1.5a6.1,6.1,0,0,1,1.339-1.411c2.391-1.911,2.451-4.688,2.951-7.7-1.132.821-2.006,1.451-2.875,2.09-.327.24-.617.644-.971.708-.485.086-1.23.1-1.47-.187a1.468,1.468,0,0,1,.067-1.449q3.13-2.4,6.435-4.573c.27-.178,1.123.145,1.391.485a1.387,1.387,0,0,1-.2,1.339c-1.142.567-.983,1.52-1.005,2.482-.017.724-.142,1.446-.233,2.311,2.076-1.392,3.09-3.858,5.436-4.763-.437-2.541-.89-5.17-1.36-7.909-1.366.734-2.66,1.484-4.006,2.128a11.082,11.082,0,0,1-2.413.788c-.238.052-.563-.3-.848-.46.181-.264.3-.622.555-.779,2.021-1.273,4.1-2.462,6.074-3.8.349-.237.365-1.037.44-1.588.107-.776-.5-1.88.767-2.113,1.344-.247,1.233.964,1.477,1.769A2.132,2.132,0,0,0,291.626,86.612Z" transform="translate(158.775 23.573)" fill="#e64b4b"/>
    <path id="Path_532" data-name="Path 532" d="M207.789,55.827c.1,1.487.2,2.977.3,4.623.855-.727,1.6-1.436,2.417-2.033a8.69,8.69,0,0,1,2.209-1.239,1.8,1.8,0,0,1,1.534.252,1.728,1.728,0,0,1,.371,1.513,14.547,14.547,0,0,1-4.98,6.324c-.261.207-.757.121-1.074.162v2.954l.29.133c.758-.864,1.5-1.74,2.28-2.586a5.048,5.048,0,0,1,.788-.587c.143.339.466.727.39,1.005a6.8,6.8,0,0,1-.822,1.6c-.221.368-.506.7-.864,1.183,2.4-.458,2.761-2.206,3.039-3.68-.624-.442-1.513-.77-1.529-1.138-.05-1.093,1.038-.791,1.667-.883,1.387-.2,1.765.485,1.684,1.9a4.928,4.928,0,0,1-2.4,4.015,2.118,2.118,0,0,0-.724,3.146c.537-.681,1.016-1.306,1.515-1.911a9.157,9.157,0,0,1,.694-.675c.275.32.7.6.795.967a24.084,24.084,0,0,1,.385,2.726c.76-.8,1.313-1.385,1.861-1.971a1.372,1.372,0,0,1,2.137-.2,1.322,1.322,0,0,1-.081,2.049c-.907.931-1.786,1.9-2.766,2.747-1.284,1.113-2.018,1.033-3.23-.154a1.893,1.893,0,0,0-1.1,2.178c.2,2.79.365,5.583.451,8.377a2.479,2.479,0,0,1-.594,1.75,1.9,1.9,0,0,1-1.738.276,2.149,2.149,0,0,1-.981-1.6c.019-2.966.185-5.932.313-8.9.1-2.434.225-4.866.339-7.328-1.223.13-1.757.631-1.7,1.954a49.659,49.659,0,0,1-.221,5.476,1.876,1.876,0,0,1-2.051,1.923,2.026,2.026,0,0,1-1.786-2.329c.389-6.209.758-12.416,1.145-18.624.045-.727.138-1.455.23-2.178.178-1.375.447-1.544,1.836-1.194Zm.446,7.933.359.181,4.013-4.728-.441-.427c-1.309,1.137-2.669,2.227-3.894,3.45C208.012,62.5,208.235,63.24,208.235,63.76Z" transform="translate(104.838 2.591)" fill="#e64b4b"/>
    <path id="Path_533" data-name="Path 533" d="M152.6,89.753l1,4.134c1.211-.986,2.341-1.968,3.533-2.866a12.9,12.9,0,0,1,9.486-2.228,4.468,4.468,0,0,1,4.206,4.467c.161,4.547.254,9.1.147,13.649-.074,3.16-.51,6.312-.821,9.463a2.783,2.783,0,0,1-1.954,2.679,2.907,2.907,0,0,1-3.116-1.171c-.542-.6-1.062-1.23-1.574-1.861a1.146,1.146,0,0,1,.021-1.736,1.168,1.168,0,0,1,1.814.2c.447.522.838,1.092,1.252,1.639l.434-.268c.211-1.719.52-3.433.613-5.158q.461-8.517.776-17.044c.079-2.159-.753-2.9-2.942-2.937A13.814,13.814,0,0,0,155.2,94.374a15.279,15.279,0,0,1-1.5,1.1c.3,3.775.567,7.7.942,11.619.09.922.021,1.655-.86,2.026a1.463,1.463,0,0,1-2.073-.95,19.853,19.853,0,0,1-1.04-4.946c-.145-3.9-.022-7.807-.047-11.711a13.673,13.673,0,0,0-.33-1.615c-.05-.375-.149-.916.048-1.123a63.591,63.591,0,0,1,4.818-4.763,3.085,3.085,0,0,1,2.273-.183.868.868,0,0,1,.249,1.548C155.965,86.849,154.258,88.322,152.6,89.753Z" transform="translate(65.27 22.968)" fill="#e64b4b"/>
    <path id="Path_534" data-name="Path 534" d="M247.079,80.437c-.9.589-1.69,1.157-2.529,1.646a1.389,1.389,0,0,1-1.966-.256,2.113,2.113,0,0,0-.679-.473A2.135,2.135,0,0,1,240.6,79.21c.2-4.709.371-9.42.622-14.126.126-2.349.4-4.692.615-7.036a2.565,2.565,0,0,1,.216-1.18,1.8,1.8,0,0,1,1.13-.8c.28-.012.791.575.843.945.181,1.273.206,2.567.282,3.735a27.527,27.527,0,0,1,3.4-1.455,3,3,0,0,1,4.118,2.439,18.694,18.694,0,0,1,.617,4.321c-.016,3.481-.062,6.977-.425,10.434a9.571,9.571,0,0,1-1.809,3.916C249.221,81.9,248.278,81.834,247.079,80.437Zm2.59-9.524-.328-.2c-1.43,1.161-2.866,2.317-4.284,3.495a.755.755,0,0,0-.2.546c.053,1.356.133,2.71.214,4.243,1.242-.985,2.348-1.852,3.443-2.733.212-.171.523-.371.555-.593C249.306,74.09,249.477,72.5,249.669,70.913ZM244.448,67.2c1.864-1.005,3.2-2.512,5.31-2.362-.024-.425-.043-.826-.073-1.227-.176-2.462-.7-2.819-3.056-2.068-2.256.722-2.336.859-2.189,3.236C244.486,65.5,244.448,66.236,244.448,67.2Zm5.217,1v-1.8c-1.2.656-2.273,1.185-3.289,1.817-1.954,1.216-1.954,1.277-1.482,3.56Z" transform="translate(131.022 2.861)" fill="#e64b4b"/>
    <path id="Path_535" data-name="Path 535" d="M160.67,67.213c.39.185.776.406,1.185.555a49.641,49.641,0,0,1,12.511,6.971,20.364,20.364,0,0,1,3.883,4.308,2.058,2.058,0,0,1-.428,3.113,2.111,2.111,0,0,1-2.975-.726c-2.469-3.3-6.02-5.293-9.171-7.776-1.94-1.531-3.782-3.189-5.711-4.828-.817,1.6-1.62,3.312-2.545,4.953a47.714,47.714,0,0,1-2.788,4.424c-.919,1.277-2.064,1.479-3.02.741-.98-.757-.942-1.774-.1-3.115,1.824-2.907,3.572-5.861,5.345-8.781a8.168,8.168,0,0,1-2-.57c-.5-.309-1.225-.857-.567-1.541.244-.254.971-.041,1.487.112,3.006-.974,4.137-3.336,4.353-6.352.029-.427.42-.827.644-1.24.409.3,1,.525,1.187.931a12.11,12.11,0,0,1,.539,2.417c1.054-.962,2.052-1.826,2.992-2.748.618-.606,1.275-1.023,2-.356.814.743.378,1.5-.289,2.08a21.479,21.479,0,0,1-3.676,2.992C161.7,63.765,161.105,65.33,160.67,67.213Z" transform="translate(65.75 3.802)" fill="#e64b4b"/>
    <path id="Path_536" data-name="Path 536" d="M181.4,108.4l.586-3.025c-2.583.791-4.967,1.531-7.356,2.251-1.087.328-2.184.625-3.277.928-.764.212-1.441.067-1.657-.76-.232-.89.342-1.085,1.125-1.128.365-.021.694-.4,1.068-.549,3.488-1.392,6.981-2.771,10.738-4.258.764-3.749,1.3-7.91.019-12.089-.553-1.8-1.206-2.244-3.106-2.263a18.635,18.635,0,0,0-8.881,1.709,11.411,11.411,0,0,0-1.379.772c-1.085.762-1.857,1.563-1.57,3.163.57,3.194.876,6.435,1.337,9.652a4.123,4.123,0,0,0,.589,1.437,1.5,1.5,0,0,1-.225,2.087,1.349,1.349,0,0,1-2.068-.033,6.9,6.9,0,0,1-1.5-3.061c-.333-2.983-.382-6-.523-9a17.909,17.909,0,0,1-.007-2.919,2.027,2.027,0,0,1,.853-1.1c.432-.326,1.08-.4,1.453-.77a13.226,13.226,0,0,1,8.059-3.624,39.411,39.411,0,0,1,4.139-.24,5,5,0,0,1,4.55,2.553,12.409,12.409,0,0,1,1.5,8.01c-.435,4.4-1.116,8.776-1.855,13.134-.371,2.184-1.7,2.714-3.531,1.6-.435-.264-.971-1.035-.857-1.365.154-.446.886-.7,1.379-1.019A1.343,1.343,0,0,1,181.4,108.4Z" transform="translate(76.208 24.329)" fill="#e64b4b"/>
    <path id="Path_537" data-name="Path 537" d="M262.351,84.541l1.736,1.163c.4-.207,1.173-.61,1.949-1.016s1.546-.484,2,.382c.441.846.014,1.455-.8,1.861-.872.432-1.736.884-2.567,1.387-.268.162-.612.517-.6.77.055,1.413.207,2.823.327,4.229,2.223-.069,3.194.979,2.6,3.108a23.2,23.2,0,0,1-1.933,3.871c-.392.783-.745,1.586-1.114,2.379l.339.193c.176-.074.356-.143.529-.223.724-.339,1.493-.307,1.722.484.133.461-.259,1.13-.544,1.634a1.911,1.911,0,0,1-.89.613,1.817,1.817,0,0,0-1.142,2.277c1.672-.283,3.326-.675,5-.8a4.936,4.936,0,0,1,2.5.622,1.271,1.271,0,0,1,.4,1.914c-.42.639-1.033.586-1.805.523a12.319,12.319,0,0,0-4.029.347c-1.954.506-3.832,1.3-5.758,1.926a6.356,6.356,0,0,1-2.125.394,1.353,1.353,0,0,1-.926-.876c-.064-.249.439-.648.7-.971.041-.05.15-.047.23-.069,1.788-.51,1.788-.51,1.93-2.457a1.785,1.785,0,0,1-.427-.1c-.371-.19-.729-.4-1.092-.608.223-.359.363-.874.686-1.05a2.229,2.229,0,0,0,1.233-2.52,1.047,1.047,0,0,0-.442-.7,2.181,2.181,0,0,1-1.132-2.258c.076-1.662.23-3.32.375-4.977.092-1.04.653-1.327,1.759-.846l.24-4.654c-.724.321-1.292.6-1.881.824-.627.237-1.546.691-1.734-.216-.119-.567.5-1.463,1.031-1.947a26.194,26.194,0,0,1,2.507-1.6,2.165,2.165,0,0,0,.518-1.019c.244-.67.444-1.356.663-2.035Z" transform="translate(143.113 23.469)" fill="#e64b4b"/>
    <path id="Path_538" data-name="Path 538" d="M113.044,101.054c.672-.853,1.315-1.733,2.032-2.546a8.885,8.885,0,0,1,1.268-1.009l.57,1.607c1.09,1.133,1.581,2.075.943,2.6-1.413,1.168-.96-1.064-1.65-1.038a24.055,24.055,0,0,0-3.118,2.949c-.454.6-.308,1.662-.427,2.474,3.068-.152,5.937-.311,8.81-.43a8.2,8.2,0,0,1,2.657.107c.58.176,1.375.888,1.391,1.38a3.058,3.058,0,0,1-1,2.007c-.582.555-1.23.093-1.81-.4a2.011,2.011,0,0,0-1.289-.32,44.016,44.016,0,0,0-16.805,4.478,17.214,17.214,0,0,1-2.733,1.007c-.72.2-1.486.05-1.586-.84-.093-.817.247-1.408,1.29-1.289a2.146,2.146,0,0,0,1.09-.418c1.842-1.026,3.707-2.021,5.5-3.132a3.317,3.317,0,0,0,1.527-3.878,3.915,3.915,0,0,1-.769-.136,2.2,2.2,0,0,0-3.063,1.273,2.726,2.726,0,0,1-.287.394c-.468.62-1.04,1.011-1.741.416-.724-.615-.349-1.221.171-1.774,1.057-1.128,2.07-2.3,3.184-3.369.33-.316.94-.342,1.422-.5-.079.5-.15,1-.245,1.5a2.928,2.928,0,0,1-.247.532H109.9l.4-4.46c-.5.247-.864.432-1.233.613-1.237.606-2.443,1.292-3.723,1.785a5.428,5.428,0,0,1-2.135.168c-.192-.009-.508-.444-.5-.679a.972.972,0,0,1,.544-.662c1.391-.618,2.842-1.111,4.2-1.785,1.817-.9,3.55-1.973,5.369-2.869.38-.188.979.067,1.477.119-.211.449-.309,1.137-.656,1.3a1.814,1.814,0,0,0-1.19,2.443,13.453,13.453,0,0,1,.27,2.268Z" transform="translate(28.943 30.997)" fill="#e64b4b"/>
    <path id="Path_539" data-name="Path 539" d="M218.307,56.579a3.456,3.456,0,0,1-.453-.064c-.523-.164-1.045-.337-1.569-.506.415-.447.751-1.047,1.261-1.306a5.11,5.11,0,0,1,2.1-.48c.732-.022,1.434.349,1.387,1.2a1.082,1.082,0,0,1-1.467,1.061,11.762,11.762,0,0,1-.209,1.76c-.482,1.79-1.026,3.564-1.593,5.5.878-.13,1.532-.257,2.194-.318a1.83,1.83,0,0,1,2.1,1.451,5.98,5.98,0,0,1,.231,2.75c-.61,2.41-.807,4.975-2.249,7.116-.463.684-.342,1.1.27,1.613,2.306,1.924,4.616,3.851,6.846,5.863,1.4,1.259,1.541,2.367.656,3.227s-1.947.6-3.182-.767c-2.071-2.284-4.136-4.574-6.224-6.888-.893,1.109-1.769,2.2-2.648,3.293-.549.682-1.244,1.04-1.988.411-.783-.66-.406-1.346.164-2,.724-.821,1.394-1.686,2-2.419-1.543-3.524-.743-7.09-.89-10.569C214.89,62.839,216.3,59.64,218.307,56.579Zm.477,13.516.574-.169c.266-1.17.6-2.33.769-3.515.079-.579.352-1.432-.805-1.524-1.09-.086-1.189.589-1.211,1.36a16.642,16.642,0,0,0,.021,2.543A4.428,4.428,0,0,0,218.784,70.095Z" transform="translate(111.187 1.516)" fill="#e64b4b"/>
    <path id="Path_540" data-name="Path 540" d="M279.489,97.2c.536-.083,1.085-.209,1.638-.244a2.268,2.268,0,0,1,2.624,2.242c.256,2.394-2.094,6.456-4.365,7.218a10.621,10.621,0,0,1-3.04.047c-.4.9-.86,2.056-1.415,3.167-1.178,2.355-2.355,4.713-3.631,7.014a3.127,3.127,0,0,1-3.2,1.805,2.307,2.307,0,0,1-2.026-1.518,2.442,2.442,0,0,1,.4-2.508,54.659,54.659,0,0,0,3.593-5.127,87.491,87.491,0,0,0,7.812-18.165c.124-.42.7-.707,1.071-1.056.283.428.808.857.807,1.282C279.757,93.252,279.6,95.148,279.489,97.2Zm-2.3,7.42c.753-.142,1.482-.059,1.746-.37a27.456,27.456,0,0,0,2.74-3.8,1.142,1.142,0,0,0-.449-1.759,2.337,2.337,0,0,0-2.51.928C278.219,101.157,277.767,102.7,277.185,104.619Z" transform="translate(149.423 27.599)" fill="#e64b4b"/>
    <path id="Path_541" data-name="Path 541" d="M142.858,104c0-1.284-.069-2.481.014-3.669.278-3.963.6-7.922.941-11.88.022-.257.318-.681.506-.693a1.06,1.06,0,0,1,.881.406,16.688,16.688,0,0,1,.834,2.9c.2,1.106.238,2.241.358,3.476.347-.24.618-.563.926-.6.416-.057,1.069-.036,1.235.211a1.272,1.272,0,0,1-.166,1.227c-2.1,1.088-2.27,2.919-2.139,4.953a22.49,22.49,0,0,1-.159,2.735c.513-.219.917-.358,1.29-.556,2.26-1.194,4.511-2.4,6.765-3.605,1.28-.686,2.493-.447,3.066.606a1.991,1.991,0,0,1-1.011,2.849c-3.714,2.068-7.3,4.478-11.533,5.348a12.064,12.064,0,0,1-4.573-.1,3.656,3.656,0,0,1-3.039-4.393,12.677,12.677,0,0,1,1.2-3.4c.157-.328.852-.4,1.3-.587.033.451.071.9.1,1.349.059,1-.216,2.2.251,2.933C140.532,104.493,141.842,104.143,142.858,104Z" transform="translate(55.653 25.917)" fill="#e64b4b"/>
    <path id="Path_542" data-name="Path 542" d="M254.417,65.59c-1.52-.138-1.848-.767-1.059-1.968.846-1.287,1.752-2.539,2.55-3.856a11.949,11.949,0,0,0,.769-1.957l-.321-.23c-.549.437-1.073.912-1.66,1.29a2.4,2.4,0,0,1-.931.143c.035-.287-.04-.693.123-.838A15.8,15.8,0,0,1,256.34,56.2a1.3,1.3,0,0,1,2.075,1.038,5.391,5.391,0,0,1-.24,2.375,14.147,14.147,0,0,1-1.437,2.671,2.587,2.587,0,0,0-.421,2.351c.313,1.194-.218,2.609-.389,3.927-.2,1.525-.449,3.046-.6,4.576-.111,1.163.549,1.783,1.66,2.018a6.593,6.593,0,0,0,7.895-7.584c-.446-2.514-.954-5.017-1.448-7.522-.278-1.4.154-2.311,1.216-2.493.973-.168,1.686.468,1.924,1.852.52,3.035,1.052,6.072,1.449,9.126a7.34,7.34,0,0,1-.308,2.873c-1,3.505-6.107,7.682-10.712,7.124-2.664-.323-5.483-2.306-4.54-6.105C253.033,70.154,253.748,67.915,254.417,65.59Z" transform="translate(139.524 2.782)" fill="#e64b4b"/>
    <path id="Path_543" data-name="Path 543" d="M133.384,98.214c.285-.425.406-.769.65-.933a7.476,7.476,0,0,1,1.265-.572,3.662,3.662,0,0,1,.035,1.463,19.486,19.486,0,0,1-1.292,2.059,4.017,4.017,0,0,0-.511,1.22,1.219,1.219,0,0,0,.935,1.643,29.769,29.769,0,0,1,3.685,1.584,17.789,17.789,0,0,0,7.427,2.128,4.2,4.2,0,0,1,.962.164,1.929,1.929,0,0,1,1.529,2.168,1.855,1.855,0,0,1-1.961,1.764,16,16,0,0,1-7.427-1.615c-2.923-1.595-5.806-3.256-8.724-4.858-.843-.463-1.743-.819-2.747-1.285-.411,1-.8,1.831-1.1,2.7-.306.888-.8,1.515-1.781,1.126-1.017-.406-.916-1.27-.434-2.033,1.1-1.747,2.232-3.476,3.427-5.158.209-.3.788-.328,1.2-.484a12.589,12.589,0,0,1-.169,1.277,5.538,5.538,0,0,1-.427.924l2.826.268.491-5.716A11.726,11.726,0,0,1,129,97a1.883,1.883,0,0,1-1.487-.411,1.517,1.517,0,0,1-.23-1.4c.14-.3.831-.326,1.265-.506a3.924,3.924,0,0,0,.912-.489c1.567-1.228,3.113-2.482,4.675-3.719.682-.539,1.444-.753,2.025.052s.159,1.453-.563,1.956c-.133.093-.254.2-.383.3C132.61,94.725,132.61,94.725,133.384,98.214Z" transform="translate(45.863 27.546)" fill="#e64b4b"/>
    <path id="Path_544" data-name="Path 544" d="M92.572,71.267c3.9.895,7.77,1.919,11.7,2.657,6.214,1.166,12.466,2.118,18.693,3.213A2.113,2.113,0,0,1,124.8,79.8a2.225,2.225,0,0,1-2.805,1.655c-6.127-1.194-12.277-2.289-18.374-3.626a29.829,29.829,0,0,1-11.047-4.59c-.935-.663-1.848-1.463-1.322-2.826.223-.58.487-1.38,1.328-1.024.233.1.169.9.242,1.38Z" transform="translate(22.258 12.49)" fill="#e64b4b"/>
    <path id="Path_545" data-name="Path 545" d="M253.819,94.863a11.484,11.484,0,0,1-1.99.777c-.323.064-.727-.283-1.1-.444a8.246,8.246,0,0,1,.625-1c.111-.133.383-.117.56-.214,1.29-.71,2.546-1.4,2.467-3.225a10.424,10.424,0,0,1,.39-2.888c.09-.366.563-.637.862-.952.29.359.734.681.836,1.088a14.408,14.408,0,0,1,.185,2.386,9.576,9.576,0,0,1,1.589-1.285,3.218,3.218,0,0,1,1.3-.021c-.048.435-.09.871-.152,1.3-.009.062-.1.126-.175.162-2.246,1.175-2.486,3.085-2.049,5.321.117.6.29.8.878.883a15.144,15.144,0,0,1,2.964.62c.349.123.522.753.776,1.151-.434.18-.888.546-1.3.5a32.76,32.76,0,0,1-3.294-.677c0,2.6.1,4.955-.026,7.3-.116,2.223-.439,4.438-.71,6.651a3.888,3.888,0,0,1-.449,1.249,1.95,1.95,0,0,1-2.719,1.047,2.681,2.681,0,0,1-.867-3.072,11.394,11.394,0,0,0,.536-2.949c.212-2.387.352-4.78.546-7.508-.686.783-1.178,1.368-1.7,1.931-.821.893-1.624,1.016-2.32.382s-.646-1.487.183-2.344q1.36-1.4,2.771-2.75C253.8,96.99,253.81,97,253.819,94.863Z" transform="translate(137.14 25.306)" fill="#e64b4b"/>
    <path id="Path_546" data-name="Path 546" d="M238.376,67.053c.466-.518.876-1.023,1.337-1.475a1.713,1.713,0,0,1,2.583-.2c.751.739.724,1.643-.13,2.591-.681.755-1.458,1.427-2.09,2.218a2.455,2.455,0,0,0-.574,1.474,17.6,17.6,0,0,1-1.012,6.578c-1.068,3.077-5.7,4.16-8.08,1.909a3.329,3.329,0,0,1-.294-4.45,34.7,34.7,0,0,1,3.011-3.505c1.135-1.214,2.344-2.36,3.562-3.576a2.824,2.824,0,0,0-.418-.738,5.689,5.689,0,0,1-1.691-5.322c.209-1.639.288-3.3.522-4.932.047-.327.53-.593.812-.886a7.636,7.636,0,0,1,.437,1.168,13.7,13.7,0,0,1,.226,1.8,12.135,12.135,0,0,1,.133,3.265C236.35,64.692,236.97,65.87,238.376,67.053Zm-.99,6.371-.24-.074c-1.5,1.453-3.025,2.887-4.486,4.381a1.006,1.006,0,0,0,.052.986c.755.656,2.975.223,3.315-.7C236.575,76.519,236.943,74.959,237.387,73.425Z" transform="translate(122.881 3.35)" fill="#e64b4b"/>
    <path id="Path_547" data-name="Path 547" d="M191.111,90.149a23.53,23.53,0,0,0-1.864,1.536,1.315,1.315,0,0,0-.207.948c.313,3.146.684,6.286.952,9.436.029.342-.5,1.04-.748,1.033-.511-.016-1.327-.288-1.456-.653a9.366,9.366,0,0,1-.473-2.964c-.021-1.624.119-3.251.183-4.875.016-.385,0-.77,0-1.382-1.311,1-2.379,1.715-2.966,3.215-1.076,2.745-2.527,5.343-3.844,7.991-.2.394-.442.895-.795,1.047a2.155,2.155,0,0,1-1.632.124,1.666,1.666,0,0,1-.468-1.442,7.959,7.959,0,0,1,.86-1.867c1.9-3.946,3.832-7.877,5.671-11.852a28.606,28.606,0,0,0,.888-3.116,1.966,1.966,0,0,1,.715-1.023,26.9,26.9,0,0,1,2.584-1.318,2.012,2.012,0,0,0,1.251-1.634c.073-.458.556-.848.855-1.268l1.341,1.071c.786-.361,1.847-.841,2.9-1.339.7-.33,1.4-.42,1.8.356.423.822-.04,1.347-.786,1.75-1.664.9-3.255,1.945-4.967,2.729a26.581,26.581,0,0,1-3.769,1.132c-.294,1.588-.563,3.042-.874,4.716,1.4-1.23,2.653-2.365,3.946-3.458.249-.211.762-.451.928-.34.257.171.318.634.463.973Z" transform="translate(85.319 21.415)" fill="#e64b4b"/>
    <path id="Path_548" data-name="Path 548" d="M228.732,62.487c1.311-.917,2.538-1.774,3.762-2.633a1.3,1.3,0,0,1,1.866.078,1.276,1.276,0,0,1-.055,1.859,2.471,2.471,0,0,0-.359.867c-.6,2.054-1.14,4.125-1.809,6.157a1.263,1.263,0,0,0,.318,1.584c.727.67,1.788,1.432.833,2.522-.979,1.116-1.793.076-2.634-.644-.506.814-.952,1.617-1.479,2.362-1.059,1.494-2.576,2.161-3.982,1.589a2.248,2.248,0,0,1-1.258-1.425c-.074-.532.4-1.555.821-1.667,1.525-.4,1.956-1.707,2.7-2.767.162-.23.287-.489.466-.8l-2.045-1.681a21.313,21.313,0,0,1-2.372.99c-.646.2-1.449.28-1.709-.646-.252-.907.363-1.137,1.1-1.384,1.463-.489,2.641-1.14,2.723-3.08a14.215,14.215,0,0,1,1.2-4.186c.138-.371.748-.568,1.14-.846.259.408.675.789.741,1.225A17.139,17.139,0,0,1,228.732,62.487Zm2.187,1.912-.181-.149-2.484,1.829,1.088,1.18c.5-.865.971-1.662,1.429-2.462A2.558,2.558,0,0,0,230.919,64.4Z" transform="translate(117.303 4.8)" fill="#e64b4b"/>
    <path id="Path_549" data-name="Path 549" d="M122.649,67.1c.777-.919,1.5-1.793,2.244-2.65a1.754,1.754,0,0,1,2.55-.454,1.682,1.682,0,0,1,.079,2.579c-.986,1.24-2.044,2.425-2.973,3.706a3.575,3.575,0,0,0-.587,1.74c-.147,1.816-.014,3.668-.316,5.452a4.435,4.435,0,0,1-3.453,3.83,2.734,2.734,0,0,1-3.59-2.128,4.959,4.959,0,0,1,.432-3.9c1.176-2.028,2.55-3.939,3.783-5.934.2-.32.29-1.024.1-1.213-1.786-1.76-1.959-3.854-1.632-6.19.245-1.745.105-1.74-1.544-2.128-.271-.064-.66-.444-.651-.665a1.035,1.035,0,0,1,.65-.689c2.019-.606,3.4.389,3.476,2.479a8.068,8.068,0,0,1-.1,1.334C120.759,64.887,120.778,64.963,122.649,67.1Zm-.707,6.708c-2,2.171-2.648,3.673-2.215,4.968C121.267,78.38,122.065,76.649,121.942,73.8Z" transform="translate(40.662 4.468)" fill="#e64b4b"/>
    <path id="Path_550" data-name="Path 550" d="M91.962,101.977c-1.061-.358-2.108-.762-3.184-1.062-3.858-1.076-4.174-4.314-2.515-6.753a81.267,81.267,0,0,1,5.832-7.01c.717-.834,1.206-1.885,2.422-2.251.783-.237,1.437-.356,1.931.394.463.7.147,1.284-.371,1.842q-3.4,3.661-6.765,7.357a6.861,6.861,0,0,0-.85,1.185c-.947,1.648-.612,2.641,1.125,3.341.976.392,2.006.667,2.951,1.123,1.721.833,1.961,2.524.537,3.861-2,1.881-4.416,1.9-6.857,1.2-2.372-.677-3.224-2.631-3.407-4.846a22.615,22.615,0,0,1,.211-4.488c.041-.349.66-.631,1.014-.945.309.354.822.674.891,1.071.232,1.354.212,2.754.465,4.1.383,2.049,1.019,2.579,3.129,2.671a32.538,32.538,0,0,0,3.4-.188Z" transform="translate(16.2 23.705)" fill="#e64b4b"/>
    <path id="Path_551" data-name="Path 551" d="M217.839,96.483a16.306,16.306,0,0,1,1.373-1.076c1.225-.75,2.377-.232,2.211,1.156a8.887,8.887,0,0,1-1.334,3.534,2.037,2.037,0,0,0-.382,2.147,16.173,16.173,0,0,0,.625,2.019c.793-1.37,1.572-2.747,2.391-4.1.161-.266.51-.643.707-.606.269.047.679.447.672.688a5.055,5.055,0,0,1-.375,1.99c-.6,1.271-1.337,2.476-2,3.673,2.232-.707,4.479-1.451,6.751-2.113a2.852,2.852,0,0,1,1.783-.028,1.97,1.97,0,0,1,1.114,1.311,1.855,1.855,0,0,1-1.04,1.37c-3.072,1.128-6.184,2.146-9.292,3.175a8.95,8.95,0,0,1-2.686.686,2.643,2.643,0,0,1-1.9-.947c-.235-.328.275-1.185.444-1.807a5.575,5.575,0,0,0,.283-1.182,6.934,6.934,0,0,0-.166-1.322c-.263-1.641.029-3.282-.565-4.975-.468-1.335.029-3.021.168-4.543.019-.221.42-.408.643-.608a3.161,3.161,0,0,1,.558.67A2.674,2.674,0,0,1,217.839,96.483Z" transform="translate(113.315 31.13)" fill="#e64b4b"/>
    <path id="Path_552" data-name="Path 552" d="M235.357,110.642a35.958,35.958,0,0,0,3.12-9.586c.688-3.866,1.346-7.743,1.843-11.638.223-1.757-.466-2.089-2.07-1.225-.675.365-1.254.919-1.942,1.251a2.09,2.09,0,0,1-1.522.225c-.323-.143-.435-.848-.551-1.327a3.074,3.074,0,0,1-.048-1.2,7.872,7.872,0,0,1,.434-1.27,5.911,5.911,0,0,1,1.365.662c.225.187.218.651.292.907,1.178-.311,2.3-.644,3.441-.9a1.636,1.636,0,0,1,2.09,1.36,9.439,9.439,0,0,1,.463,2.624c-.25,7.49-.865,14.924-4.008,21.884a10.72,10.72,0,0,1-1.372,2.42c-1.292,1.572-3.134,1.3-4.013-.517a8.637,8.637,0,0,1-.368-1.028c-.276-.831-.589-1.81.28-2.327A7.323,7.323,0,0,1,235.357,110.642Z" transform="translate(124.93 24.545)" fill="#e64b4b"/>
    <path id="Path_553" data-name="Path 553" d="M112.271,88.115c-.757.593-1.551,1.144-2.246,1.8a1.882,1.882,0,0,0-.318,1.094,15.322,15.322,0,0,1-.212,2.538,3.433,3.433,0,0,1-1.133,1.767,1.359,1.359,0,0,1-2.317-.973l-2.631-2.289c-.577.249-.914.694-.558,1.6.3.746.335,1.607-.634,1.938-.859.294-1.408-.276-1.709-1a23.651,23.651,0,0,1-.992-2.862c-.157-.577-.548-1.418.359-1.632.411-.1.976.454,1.524.739,1.722-1.225,3.659-2.591,5.576-3.982.155-.112.209-.384.283-.591.185-.517.354-1.038.53-1.556l1.468.757c1.724-.327,3.571-.741,5.438-1,1.021-.142,2.161,0,2.55,1.171a2.746,2.746,0,0,1-.81,3.113c-.772.655-1.617,1.225-2.417,1.847a15.6,15.6,0,0,1-1.593,1.275,5.214,5.214,0,0,1-1.432.358,3.953,3.953,0,0,1,.081-1.5,20.79,20.79,0,0,1,1.493-2.3Zm-6.483,3.975,1.646-2.377-.351-.321L104.8,90.917Zm8.166-5.609.574,1.728,1.342-1.823Z" transform="translate(28.229 23.488)" fill="#e64b4b"/>
    <path id="Path_554" data-name="Path 554" d="M266.768,62.109c.344.022.437.057.5.028,2.633-1.266,4.656-.268,5.122,3.056a12.8,12.8,0,0,1-.983,7.155,4.293,4.293,0,0,1-2.773,2.552,1.728,1.728,0,0,0-.84.867,1.84,1.84,0,0,1-2.194,1.107,1.789,1.789,0,0,1-1.451-1.848,42.593,42.593,0,0,1,.517-12.376,24.356,24.356,0,0,1,1.325-3.769c.114-.275.594-.4.905-.594a4.065,4.065,0,0,1,.242,1.126C267.07,60.288,266.906,61.155,266.768,62.109Zm.285,1.931c.1,1.03.2,2,.3,2.959a1.69,1.69,0,0,0,.1.326c2.152-.843,2.65-1.506,2.149-2.842C269.244,63.527,268.637,63.4,267.053,64.04Zm2.569,4.21c-2.175,1.249-2.282,1.537-1.553,4.006A6.04,6.04,0,0,0,269.622,68.25Z" transform="translate(148.008 4.473)" fill="#e64b4b"/>
    <path id="Path_555" data-name="Path 555" d="M113.63,64.413c1.425-1.19,2.6-2.171,3.776-3.156.641-.536,1.323-.935,2.014-.14s.173,1.37-.427,1.964a2.8,2.8,0,0,0-.753,1.282c-.408,1.772-.729,3.566-1.092,5.4.945.408,2.26.618,1.821,2.076-.385,1.282-1.5.922-2.394.712a39.411,39.411,0,0,1-1.47,3.951,2.205,2.205,0,0,1-3.712.739,1.449,1.449,0,0,1,.373-2.427c1.432-.613,1.373-2.078,1.954-3.175.05-.1-.2-.38-.345-.544-.536-.6-1.088-1.187-1.7-1.852-.812.65-1.674,1.373-2.574,2.049a5.613,5.613,0,0,1-1.463.843c-.245.086-.61-.164-.921-.263a2.507,2.507,0,0,1,.327-.81c1.27-1.365,2.588-2.681,3.844-4.056a2.816,2.816,0,0,0,.4-1.1c.46-1.586.833-3.2,1.4-4.749a4.975,4.975,0,0,1,1.349-1.683c.18-.171.629-.062.955-.081-.017.325.1.8-.074.954C113.751,61.37,113.9,62.761,113.63,64.413Zm.14,3.009,1.114,1.461.976-2.959-.228-.114Z" transform="translate(33.62 5.272)" fill="#e64b4b"/>
    <path id="Path_556" data-name="Path 556" d="M214.118,101.579c-.84.879-1.669,1.7-2.427,2.584-.173.2-.133.613-.13.928.017,1.3.081,2.6.085,3.9,0,1.28-.61,2-1.638,1.992a1.706,1.706,0,0,1-1.595-1.933c.045-4.433.107-8.864.232-13.293.01-.4.565-1.123.784-1.094.487.067.921.518,1.465.871a12.391,12.391,0,0,1,1.4-1.081c1.95-1.166,3.488-.606,4.137,1.575a14.634,14.634,0,0,1,.1,7.819,4.221,4.221,0,0,1-.632,1.812,5.594,5.594,0,0,1-2.113,1.37c-.287.109-.993-.37-1.2-.75a1.514,1.514,0,0,1,.185-1.328A4.791,4.791,0,0,0,214.118,101.579Zm.038-5.36c-.43-1.107-1.277-.363-1.885-.088a1.772,1.772,0,0,0-.907,2.759Zm.377,2.318-.47-.335-2.738,3.742.4.294C212.519,100.9,214.03,100.093,214.533,98.537Z" transform="translate(107.609 30.354)" fill="#e64b4b"/>
    <path id="Path_557" data-name="Path 557" d="M227.821,94.592c.261-.131.47-.244.682-.346,1.658-.793,2.8-.245,3.249,1.593a11.5,11.5,0,0,1-.39,6.121,5.5,5.5,0,0,0-.014,1.563,2.033,2.033,0,0,1,.017.466c-.206.879-2.579,2.747-3.54,2.8-2.524.142-2.863-.185-2.864-2.785,0-3.944.022-7.888-.01-11.83a16.927,16.927,0,0,0-.365-1.99c-.048-.38-.133-.943.071-1.137a31.075,31.075,0,0,1,3.576-3.035,1.708,1.708,0,0,1,1.645.311c.539.662-.259.947-.707,1.353a26.605,26.605,0,0,0-2.322,2.488c-.124.145-.04.515.021.764C227.161,92.108,227.477,93.279,227.821,94.592Zm2.194,3.844a8.381,8.381,0,0,0-.116-1.793c-.1-.4-.539-1.024-.8-1.012-.674.036-1.351.321-1.152,1.3.126.627.157,1.273.223,1.833Zm-1.432,4.512,1.23-2.994C228.32,100.642,227.912,101.565,228.583,102.948Z" transform="translate(119.332 24.572)" fill="#e64b4b"/>
    <path id="Path_558" data-name="Path 558" d="M102.647,62.523a36.712,36.712,0,0,1,3.484-1.349c2.888-.8,4.455.219,4.9,3.184.7,4.657-.9,8.793-3.113,12.74a2.76,2.76,0,0,1-2.747,1.487c-.454-.052-1.17-.508-1.209-.845a2.3,2.3,0,0,1,.71-1.434c.351-.4,1.04-.567,1.285-1a19.047,19.047,0,0,0,2.812-9.814c-.043-2.33-.485-2.707-2.605-1.857a13.994,13.994,0,0,0-8.123,7.917,5.875,5.875,0,0,0-.126,1.907c-.026.71-.012,1.472-.966,1.55-.921.076-1.121-.656-1.271-1.346a3.611,3.611,0,0,1-.054-1.092c.149-1.6.308-3.2.5-4.79.029-.23.308-.62.43-.606a2.3,2.3,0,0,1,.755.309l5.381-5Z" transform="translate(25.539 6.383)" fill="#e64b4b"/>
    <path id="Path_559" data-name="Path 559" d="M218.443,87.189c1.287-.206,1.765-.694,1.57-1.779a5.583,5.583,0,0,1-.041-1.938,1.234,1.234,0,0,1,.789-.845c.289-.031.66.4.936.684a.89.89,0,0,1,.126.584c-.036,1.316,0,2.465,1.854,2.5.461.009,1.157.838,1.308,1.406a5.81,5.81,0,0,1-.845,4.868c-1.429,2.152-3.731,3.113-5.792,4.393-.824.511-2.652-.39-2.942-1.377-.422-1.429-.783-2.878-1.073-4.34a1.074,1.074,0,0,1,.549-.9c1.4-.323,1.753-1.289,1.892-2.545a24.727,24.727,0,0,1,.653-3.453c.069-.273.537-.442.822-.66a3.034,3.034,0,0,1,.392,1C218.645,85.543,218.526,86.292,218.443,87.189Zm3.661,4.588a2.789,2.789,0,0,0,1.176-3.008c-.088-.37-.537-.653-.821-.976l-.356.2Zm-2.165-3.153c-1.064.584-1.08,1.1-.147,2.151a3.288,3.288,0,0,0,.14-.6C219.951,89.7,219.939,89.219,219.939,88.625Z" transform="translate(111.911 22.18)" fill="#e64b4b"/>
    <path id="Path_560" data-name="Path 560" d="M197.094,59.815a13.2,13.2,0,0,1-1.766,6.516c-.663,1.107-1.5,2.044-3.037,1.738-.219-.043-.506.157-.738.29-1.707.979-3.251.128-3.18-1.859.079-2.228.313-4.45.479-6.675.06-.81.109-1.62.183-2.429.081-.9.371-1.558,1.489-1.5a1.761,1.761,0,0,0,1-.506c.969-.8,2.023-1.548,3.3-1.1,1.377.48,1.8,1.778,2,3.108C196.951,58.2,197.008,59.01,197.094,59.815Zm-2.762-1.132a11.453,11.453,0,0,0-.219-1.721.889.889,0,0,0-.7-.508,1.578,1.578,0,0,0-1.477,2.1c.114.529.218,1.059.332,1.615Zm-.164,1.755c-1.985,1.087-2.356,2.151-1.74,5.179A9.236,9.236,0,0,0,194.168,60.439Z" transform="translate(93.028 1.47)" fill="#e64b4b"/>
    <path id="Path_561" data-name="Path 561" d="M274.588,77.9a34.926,34.926,0,0,0,4.746-13.514,26.205,26.205,0,0,0,.105-3.515c0-1.047-.637-1.344-1.55-1.076-.969.285-1.9.717-2.878.952-.536.128-1.341.2-1.651-.1s-.269-1.1-.187-1.645a11.735,11.735,0,0,1,.679-2.577c.14-.354.637-.567.973-.843.209.342.546.667.594,1.03a10.9,10.9,0,0,1-.066,1.909c.708-.1,1.4-.244,2.108-.29,2.234-.149,3.5.783,3.814,3,.945,6.706-.757,12.851-4.13,18.607a5.821,5.821,0,0,1-.852,1.031,2.731,2.731,0,0,1-2.793,1.092,2.362,2.362,0,0,1-1.567-2.263,2.538,2.538,0,0,1,.425-1.931c.418-.352,1.313-.143,2-.18Z" transform="translate(153.804 2.503)" fill="#e64b4b"/>
    <path id="Path_562" data-name="Path 562" d="M185.495,88.771l.484-.477c1.047-1.227,2.085-2.46,3.146-3.674.2-.23.525-.577.724-.537a1.481,1.481,0,0,0,1.4-.479c.613-.513,2.047.484,2.287,1.589a4.162,4.162,0,0,1-.6,3.683c1.691,1.636.458,3.545.748,5.364a3,3,0,0,1,.954-.53c.387-.052,1.036,0,1.152.226a1.393,1.393,0,0,1-.1,1.27,5.7,5.7,0,0,1-1.56,1.138c-1.375.791-1.869.643-2.562-.689a1.472,1.472,0,0,0-.857,1.779,14.536,14.536,0,0,1,.1,2.311,1.6,1.6,0,0,1-1.608,1.753c-.974-.009-1.551-.613-1.536-1.783.04-2.963.128-5.925.2-8.888.01-.484.041-.967.057-1.313l-2.178.612Zm5.454-3.82c-.283,1.377-2.016,2.3-1.107,4.015C192.122,87.531,192.488,86.258,190.949,84.952Zm1.569,5.26-.242-.333c-1.719.067-2.349.731-1.874,2.168Z" transform="translate(90.935 22.792)" fill="#e64b4b"/>
    <path id="Path_563" data-name="Path 563" d="M189.592,101.671c3.092-3.148,6.136-6.245,9.178-9.348a2.632,2.632,0,0,0,.52-.651,2.091,2.091,0,0,1,2.5-1.309c.339.086.857.477.848.71a2.362,2.362,0,0,1-.537,1.479c-2.087,2.108-4.272,4.12-6.359,6.228-1.394,1.408-2.681,2.919-4.215,4.6,1.14.083,2.006.136,2.869.211a1.735,1.735,0,0,1,1.4,2.873A3.4,3.4,0,0,1,192.32,108c-1.4-.187-2.747-.539-3.31-2.068-.28-.757-.449-1.556-.739-2.31-.212-.549-.6-1.028-.8-1.581a6.058,6.058,0,0,1-.162-1.384c.446,0,.969-.145,1.322.038A3.932,3.932,0,0,1,189.592,101.671Z" transform="translate(92.255 27.756)" fill="#e64b4b"/>
    <path id="Path_564" data-name="Path 564" d="M76.04,77.435c-.617-.1-1.47,0-1.956-.375-.753-.579-.456-1.527-.005-2.223,1.565-2.415,3.22-4.771,4.778-7.19.463-.72.65-1.62,1.106-2.348.283-.453.935-1.1,1.242-1.016.549.15,1.382.822,1.353,1.221a7.559,7.559,0,0,1-.912,3.16,43.406,43.406,0,0,1-2.881,3.927c-.24.321-.456.66-.781,1.133.444-.1.712-.166.983-.207,1.237-.192,2.013.643,1.6,1.816a8.17,8.17,0,0,1-3.908,4.647,3.189,3.189,0,0,1-4.723-1.866,16.257,16.257,0,0,1-.472-3.835c-.016-.259.437-.544.674-.819.264.244.679.444.762.738.183.658.161,1.37.3,2.047C73.594,78.242,74.686,78.589,76.04,77.435Z" transform="translate(7.974 8.831)" fill="#e64b4b"/>
    <path id="Path_565" data-name="Path 565" d="M209.614,86.357a27.521,27.521,0,0,1,2.458-1.9c.94-.577,2.018-1.054,3.075-.318a2.6,2.6,0,0,1,.895,2.966,29.76,29.76,0,0,1-1.691,4.12,12.485,12.485,0,0,1-1.1,1.94c-.173.252-.608.551-.826.487-.314-.09-.75-.484-.76-.762-.035-.919.135-1.843.145-2.767,0-.29-.309-.57-.37-.876-.09-.441-.28-1.047-.076-1.323a21.806,21.806,0,0,0,1.842-2.349c-.907.612-1.84,1.189-2.7,1.859a1.168,1.168,0,0,0-.212.945c.221,1.36.5,2.709.765,4.06.18.914.114,1.764-.89,2.128a1.6,1.6,0,0,1-2.132-1.107,11.461,11.461,0,0,1-.308-6.834C207.959,85.5,208.951,85.916,209.614,86.357Z" transform="translate(106.84 23.012)" fill="#e64b4b"/>
    <path id="Path_566" data-name="Path 566" d="M101.308,67c-1.346.062-1.346.062-1.278-2.227-1.8.451-2.362.126-2.457-1.748-.109-2.144-.069-4.3.014-6.447.021-.506.472-1,.724-1.493l1.449.876a16.982,16.982,0,0,1,2.463-1.152,1.366,1.366,0,0,1,1.961,1.213,10.765,10.765,0,0,1-2.109,8.809,7.952,7.952,0,0,0-.812,2.215Zm.826-10.32c-1.9.465-2.961,1.76-1.935,3.5C101.3,59.274,102.754,58.617,102.134,56.677Z" transform="translate(26.922 1.863)" fill="#e64b4b"/>
    <path id="Path_567" data-name="Path 567" d="M126.363,90.013c.161-1.817.247-3.154.413-4.481.057-.453.211-1.168.5-1.273a19.2,19.2,0,0,1,4-1.078,2.546,2.546,0,0,1,2.728,2.1,7.138,7.138,0,0,1-2.216,6.974c-.8.795-2.292,1-3.514,1.2-.415.069-1.2-.589-1.4-1.085A10.469,10.469,0,0,1,126.363,90.013Zm2.8-2.185,2.852-1.56c-.276-1.149-.867-1.553-1.909-1.254C128.828,85.383,128.6,86.029,129.162,87.827Zm2.944-.212c-2.659,1.232-3.027,1.767-2.552,3.636C131.131,90.567,131.684,89.209,132.105,87.615Z" transform="translate(47.916 22.57)" fill="#e64b4b"/>
    <path id="Path_568" data-name="Path 568" d="M178.758,74.988a11.983,11.983,0,0,1-.727,2.211c-1.322,2.512-2.71,4.989-4.129,7.447a2.011,2.011,0,1,1-3.412-2.061c1.372-2.393,2.757-4.778,4.124-7.176a7.535,7.535,0,0,0,.66-1.429c.311-.983.907-1.577,1.962-1.408C178.368,72.754,178.66,73.641,178.758,74.988Z" transform="translate(79.718 14.847)" fill="#e64b4b"/>
    <path id="Path_569" data-name="Path 569" d="M75.38,59.286c-1.114.686-2.051,1.285-3.013,1.842a8.724,8.724,0,0,1-1.947.943c-.333.093-.788-.242-1.185-.384.145-.378.181-.895.454-1.109a29.386,29.386,0,0,1,3.852-2.748c2.419-1.328,4.041-.309,4.144,2.431a20.337,20.337,0,0,1-1.544,8.667A6.227,6.227,0,0,1,74.084,71.5,1.912,1.912,0,0,1,71.1,70.356c-.169-.924.294-1.315,1.22-1.254a1.518,1.518,0,0,0,1.171-.57A16.846,16.846,0,0,0,75.38,59.286Z" transform="translate(6.354 3.72)" fill="#e64b4b"/>
    <path id="Path_570" data-name="Path 570" d="M61.373,76.425c.263-1.47.472-2.951.8-4.4.245-1.071,3.467-3.617,4.552-3.693a1.552,1.552,0,0,1,1.76,1.468,8.353,8.353,0,0,1-1.6,6.546,3.116,3.116,0,0,1-1.988,1.2A1.924,1.924,0,0,0,63.125,78.8c-.174.328-.636.506-.966.751a4.556,4.556,0,0,1-.475-1.045c-.121-.675-.136-1.372-.2-2.057ZM64,74.119l.39.219L65.958,71.5l-.4-.212Z" transform="translate(0.635 11.775)" fill="#e64b4b"/>
    <path id="Path_571" data-name="Path 571" d="M196.071,61.905a33.155,33.155,0,0,1,3.633-2.453c1.525-.769,2.622.105,2.536,1.829a8.178,8.178,0,0,1-4.746,6.428c-.287.1-.515.384-.8.472-.542.164-1.192.47-1.639.3a1.821,1.821,0,0,1-.764-1.344,27.48,27.48,0,0,1-.128-4.008,1.964,1.964,0,0,1,.691-1.38C195.133,61.555,195.754,61.852,196.071,61.905Zm1.133,3.179,2.935-3.811C197.661,61.753,196.5,63.215,197.2,65.084Z" transform="translate(97.222 5.118)" fill="#e64b4b"/>
    <path id="Path_572" data-name="Path 572" d="M275.33,87.844c1.341-.575,2.667-1.142,3.992-1.714.923-.4,1.738-.268,2.116.71.349.9-.111,1.518-.976,1.933-2.589,1.24-5.143,2.562-7.748,3.768a6.575,6.575,0,0,1-2.622.669c-.9.007-1.071-.651-.416-1.273a6.835,6.835,0,0,1,1.539-1.18,3.348,3.348,0,0,0,1.755-3.208,24.956,24.956,0,0,1,.242-3.032c.066-.384.5-.707.762-1.057.313.316.822.587.9.954C275.114,85.505,275.184,86.633,275.33,87.844Z" transform="translate(151.891 22.788)" fill="#e64b4b"/>
    <path id="Path_573" data-name="Path 573" d="M198.637,54.36a3.6,3.6,0,0,1-.959.307c-.292-.022-.774-.109-.819-.269a1.066,1.066,0,0,1,.212-.931,5.059,5.059,0,0,1,4.3-1.2,2.013,2.013,0,0,1,1.192,1.4,7.894,7.894,0,0,1-3.92,7.2,4.116,4.116,0,0,1-2.2.273c-.71-.1-.72-.741-.421-1.353C196.861,58.069,197.679,56.352,198.637,54.36Zm2.123-.171-.466-.162-1.724,4.3.378.157Z" transform="translate(98.462 0.019)" fill="#e64b4b"/>
    <path id="Path_574" data-name="Path 574" d="M130.5,56.881c.748-.38,1.493-.769,2.244-1.14a29.2,29.2,0,0,1,3.4-1.6,1.687,1.687,0,0,1,1.491.536,1.485,1.485,0,0,1-.216,1.456c-1.964,1.194-3.98,2.318-6.051,3.313a3.238,3.238,0,0,1-2.021-.052,1.847,1.847,0,0,1-1.425-2.526,24.594,24.594,0,0,1,1.474-3.457c.128-.259.627-.333.957-.494a2.816,2.816,0,0,1,.321,1.028c-.1.912-.316,1.812-.485,2.716Z" transform="translate(48.957 0.568)" fill="#e64b4b"/>
    <path id="Path_575" data-name="Path 575" d="M144.216,66.32a13.381,13.381,0,0,1-1.886-.71,1.078,1.078,0,0,1-.42-.91,1.2,1.2,0,0,1,.7-.7q4.281-1.677,8.589-3.275a2.507,2.507,0,0,1,1.494-.216,1.64,1.64,0,0,1,.962,1.087,1.714,1.714,0,0,1-.539,1.453A29.512,29.512,0,0,1,144.216,66.32Z" transform="translate(59.222 6.049)" fill="#e64b4b"/>
    <path id="Path_576" data-name="Path 576" d="M153.768,95.732c.143-.741.028-1.783.477-2.166a16.947,16.947,0,0,1,4-2.555c.834-.373,1.451.48,1.783,1.284a4.484,4.484,0,0,1-3.966,5.886,2.076,2.076,0,0,0-.572.155c-1.011.311-1.449-.231-1.579-1.119a10.3,10.3,0,0,1-.012-1.461Zm4.315-3.1a2.923,2.923,0,0,0-1.731,3.267A3.9,3.9,0,0,0,158.083,92.637Z" transform="translate(67.853 28.216)" fill="#e64b4b"/>
    <path id="Path_577" data-name="Path 577" d="M208.373,74.869a1.672,1.672,0,0,1-3.329.237,18.609,18.609,0,0,0-4.191-8.081.912.912,0,0,1-.164-.824.924.924,0,0,1,.821-.23c2.342.632,6.763,6.28,6.855,8.7Z" transform="translate(101.955 10.049)" fill="#e64b4b"/>
    <path id="Path_578" data-name="Path 578" d="M244.089,95.987a8.433,8.433,0,0,1-1.962-.387,1.475,1.475,0,0,1-.779-1.049,1.441,1.441,0,0,1,.781-1.024c2.21-.981,4.462-1.866,6.685-2.818,1.216-.518,2.025-.373,2.507.537.472.895.1,1.719-1.1,2.294-1.385.667-2.781,1.318-4.2,1.909A14.644,14.644,0,0,1,244.089,95.987Z" transform="translate(131.568 27.845)" fill="#e64b4b"/>
    <path id="Path_579" data-name="Path 579" d="M66.665,59.64c.2-.111.428-.34.618-.313.437.059,1.059.126,1.227.413a1.285,1.285,0,0,1-.245,1.244c-1.99,1.389-4.02,2.729-6.1,3.973a1.621,1.621,0,0,1-1.539-.157c-.408-.682.3-.955.831-1.292.961-.6,1.843-1.32,2.811-2.028,0-1.943-.031-3.894.035-5.841.009-.266.525-.75.751-.719a1.267,1.267,0,0,1,.914.717C66.268,56.928,66.435,58.25,66.665,59.64Z" transform="translate(0 2.024)" fill="#e64b4b"/>
    <path id="Path_580" data-name="Path 580" d="M215.337,90.972A13.95,13.95,0,0,0,209.2,97.4c-.257.568-.415,1.344-1.182.929a1.663,1.663,0,0,1-.323-1.532,14.4,14.4,0,0,1,5.143-6.186,6.705,6.705,0,0,1,2.249-1.147,1.888,1.888,0,0,1,1.633.366,1.976,1.976,0,0,1,.19,1.753,28.031,28.031,0,0,1-2.3,3.569c-.147.2-.618.174-.94.252-.009-.354-.157-.791,0-1.05.629-1.062,1.349-2.073,2.035-3.1Z" transform="translate(107.04 27.122)" fill="#e64b4b"/>
    <path id="Path_581" data-name="Path 581" d="M171.389,91.552a12.628,12.628,0,0,1,1.491-1.106c1.171-.651,2.094-.081,2.144,1.263.052,1.4-1.665,3.725-3.244,4.374-.149.062-.328.048-.47.121-1.691.859-1.942.708-1.926-1.164a27.263,27.263,0,0,1,.055-2.913,5.951,5.951,0,0,1,.639-1.541Z" transform="translate(79.206 27.674)" fill="#e64b4b"/>
    <path id="Path_582" data-name="Path 582" d="M109.431,90.875a16.606,16.606,0,0,1,1.5-1.323c1.092-.757,2.189-.382,2.339.928a4.858,4.858,0,0,1-.449,2.773,17.33,17.33,0,0,1-2.522,3.113c-.726.786-1.351.636-1.653-.408a17.4,17.4,0,0,1-.442-2.681c-.05-.4.062-.821.005-1.216C107.976,90.445,108.063,90.362,109.431,90.875Zm1.076,1.949.484.183.843-2.085-.587-.221Z" transform="translate(34.637 26.938)" fill="#e64b4b"/>
    <path id="Path_583" data-name="Path 583" d="M138.906,90.8c-.3-.231-.86-.46-.921-.781a1.366,1.366,0,0,1,.612-1.1c2.391-1.366,4.823-2.657,7.237-3.984.812-.447,1.626-.551,2.1.361.491.95-.022,1.586-.938,2-2.1.957-4.17,1.969-6.269,2.926A15.66,15.66,0,0,1,138.906,90.8Z" transform="translate(56.366 23.62)" fill="#e64b4b"/>
    <path id="Path_584" data-name="Path 584" d="M101.082,93.808a24.187,24.187,0,0,1,3.2-1.828c1.308-.5,2.246.392,1.833,1.717a15.046,15.046,0,0,1-1.322,2.567c-.245.451-.579.862-.781,1.33-.43,1-1.6,1.411-2.216.555a10.492,10.492,0,0,1-1.943-3.956C99.643,93.066,100.753,93.72,101.082,93.808Zm3.1.109c-2.066.579-2.253.886-1.353,1.9Z" transform="translate(28.609 28.884)" fill="#e64b4b"/>
    <path id="Path_585" data-name="Path 585" d="M69.913,65.806c.855-1.705,1.653-3.376,2.536-5,.212-.392.7-.634,1.062-.945.154.418.47.85.437,1.254a15.4,15.4,0,0,1-3.054,7.668,1.692,1.692,0,0,1-1.555.351,1.469,1.469,0,0,1-.5-1.373c.458-.992-.154-1.38-.713-1.916a3.148,3.148,0,0,1-.472-.928A3.538,3.538,0,0,1,68.74,65,6.932,6.932,0,0,1,69.913,65.806Z" transform="translate(5.206 5.62)" fill="#e64b4b"/>
    <path id="Path_586" data-name="Path 586" d="M81.7,95.494c0,1.093.021,2.187-.007,3.281a1.389,1.389,0,1,1-2.764-.162c.235-2.289.473-4.58.817-6.853.057-.377.731-1,.978-.935a1.611,1.611,0,0,1,1.056,1.03,31.549,31.549,0,0,1,.05,3.64Z" transform="translate(13.399 28.143)" fill="#e64b4b"/>
    <path id="Path_587" data-name="Path 587" d="M109.974,92.458a3.983,3.983,0,0,1-2.857,3.745c-1.045.335-1.645.012-1.878-1.045-.223-1.021-.456-2.04-.615-3.072-.117-.751.288-1,1.023-.893a2.18,2.18,0,0,0,.936-.157c.724-.238,1.667-.922,2.1-.679C109.3,90.715,109.561,91.726,109.974,92.458Z" transform="translate(32.085 27.768)" fill="#e64b4b"/>
    <path id="Path_588" data-name="Path 588" d="M186.315,97.288c-.325,1.719-.636,3.146-.845,4.588a3.793,3.793,0,0,0,.159,1.619c.247.789.114,1.5-.646,1.691a1.854,1.854,0,0,1-1.627-.475,3.156,3.156,0,0,1-.556-2.149,43.333,43.333,0,0,1,1.517-5.483c.107-.32.833-.627,1.24-.591C185.875,96.518,186.142,97.091,186.315,97.288Z" transform="translate(88.951 32.264)" fill="#e64b4b"/>
    <path id="Path_589" data-name="Path 589" d="M103.534,67.73c-.7,1.246-1.3,2.51-2.083,3.642a2.2,2.2,0,0,1-2.762.1,2.346,2.346,0,0,1,.026-2.676,18.989,18.989,0,0,1,2.152-2.42,2.063,2.063,0,0,1,1.743-.32C103.006,66.212,103.16,67,103.534,67.73Z" transform="translate(27.487 10.072)" fill="#e64b4b"/>
    <path id="Path_590" data-name="Path 590" d="M155.072,59.73c-.193-.157-.644-.344-.732-.637s.076-.929.3-1.031c2.341-1.061,4.7-2.1,7.107-2.989.337-.124,1.211.461,1.394.9.131.316-.363,1.227-.765,1.379-2.22.843-4.5,1.537-6.756,2.279C155.509,59.667,155.385,59.674,155.072,59.73Z" transform="translate(68.251 2.123)" fill="#e64b4b"/>
    <path id="Path_591" data-name="Path 591" d="M91.861,68.092c.344-1.524.717-3.341,1.189-5.134.085-.323.567-.542.864-.81a4.8,4.8,0,0,1,.34,1.211c.045,2.705,0,5.411.092,8.114.021.656.164,1.366-.565,1.468a1.607,1.607,0,0,1-1.263-.914A33.576,33.576,0,0,1,91.861,68.092Z" transform="translate(22.815 7.283)" fill="#e64b4b"/>
    <path id="Path_592" data-name="Path 592" d="M241.735,57.49l-1.373-.985a5.338,5.338,0,0,1,.853-.857q2.3-1.459,4.654-2.84a4.549,4.549,0,0,1,1.676-.667,1.48,1.48,0,0,1,1.183.536c.178.264.092,1.062-.126,1.183C246.362,55.112,244.071,56.273,241.735,57.49Z" transform="translate(130.851 0)" fill="#e64b4b"/>
    <path id="Path_593" data-name="Path 593" d="M109.351,81.212c.354.368.954.719,1.094,1.2.218.757-.4.979-1.092,1.256-2.014.815-3.951,1.819-5.934,2.714a1.216,1.216,0,0,1-.933.024.881.881,0,0,1-.054-.833A14.353,14.353,0,0,1,109.351,81.212Z" transform="translate(30.447 21.152)" fill="#e64b4b"/>
    <path id="Path_594" data-name="Path 594" d="M251.048,89.462c-.283-.228-.726-.411-.821-.708s.021-.935.245-1.057c2.059-1.128,4.144-2.215,6.274-3.2.256-.119,1.169.43,1.173.681a1.827,1.827,0,0,1-.672,1.441c-1.574.831-3.236,1.5-4.865,2.225C251.979,89.025,251.58,89.215,251.048,89.462Z" transform="translate(138.003 23.53)" fill="#e64b4b"/>
    <path id="Path_595" data-name="Path 595" d="M68.817,72.846a16.817,16.817,0,0,1,.6,2.643,1.9,1.9,0,0,1-.572,1.487,1.46,1.46,0,0,1-1.41-.335,4.292,4.292,0,0,1-.76-2.23,30.486,30.486,0,0,1,.475-4.322c.036-.242.4-.612.6-.61a1.067,1.067,0,0,1,.843.48c.269.914.408,1.864.6,2.8Z" transform="translate(4.493 12.616)" fill="#e64b4b"/>
    <path id="Path_596" data-name="Path 596" d="M68.306,64.7a6.964,6.964,0,0,1-.784,1.011c-1.555,1.372-3.113,2.74-4.718,4.049a3.6,3.6,0,0,1-1.277.385c.05-.472-.076-1.109.183-1.389,1.541-1.662,3.154-3.262,4.8-4.825a1.293,1.293,0,0,1,1.1-.078C67.881,63.95,68.041,64.356,68.306,64.7Z" transform="translate(0.747 8.461)" fill="#e64b4b"/>
    <path id="Path_597" data-name="Path 597" d="M190.433,74.358c-1.14-.24-1.624-.819-1.36-1.627a7.486,7.486,0,0,1,2.838-4.371,1.311,1.311,0,0,1,1.075-.105c.176.078.283.672.185.95-.508,1.441-1.038,2.878-1.683,4.26C191.292,73.89,190.71,74.136,190.433,74.358Z" transform="translate(93.487 11.674)" fill="#e64b4b"/>
    <path id="Path_598" data-name="Path 598" d="M124.083,101.6a9.162,9.162,0,0,1-2.755,4.64,1.41,1.41,0,0,1-1.377-.15,1.605,1.605,0,0,1-.261-1.463,16.793,16.793,0,0,1,1.679-2.223,2.888,2.888,0,0,0,.637-1.016c.142-.7.548-1.1,1.159-.843C123.589,100.724,123.841,101.306,124.083,101.6Z" transform="translate(43 35.161)" fill="#e64b4b"/>
    <path id="Path_599" data-name="Path 599" d="M261.673,85.6c-.691.282-1.37.6-2.078.831a7.61,7.61,0,0,1-1.356.19c.023-.515-.159-1.308.1-1.5a24.079,24.079,0,0,1,3.312-1.912,2.4,2.4,0,0,1,1.406-.287,4.659,4.659,0,0,1,1.33.757,4.469,4.469,0,0,1-.9,1.209,9.455,9.455,0,0,1-1.848.741Z" transform="translate(143.828 22.38)" fill="#e64b4b"/>
    <path id="Path_600" data-name="Path 600" d="M273.281,60.96c1.532.5,2.88.886,4.189,1.375a1.065,1.065,0,0,1,.615,1.588,1.092,1.092,0,0,1-1.624.5c-1.092-.511-2.223-.943-3.291-1.5a6.454,6.454,0,0,1-1.2-1.057Z" transform="translate(153.844 6.419)" fill="#e64b4b"/>
    <path id="Path_601" data-name="Path 601" d="M67.3,62.661a4.771,4.771,0,0,1-.757.85c-1.313.881-2.626,1.767-4,2.543-.344.193-.914-.012-1.38-.035.136-.555.092-1.356.446-1.619a36.886,36.886,0,0,1,3.973-2.451,1.563,1.563,0,0,1,1.118-.071C66.932,61.953,67.067,62.346,67.3,62.661Z" transform="translate(0.479 7.036)" fill="#e64b4b"/>
    <path id="Path_602" data-name="Path 602" d="M232.26,93.794c-.24-.24-.869-.582-.967-1.038-.169-.779.516-.9,1.185-.986,1.161-.147,2.313-.375,3.458-.622.781-.168,1.446-.073,1.614.789.161.822-.477,1.156-1.157,1.271C235.156,93.42,233.907,93.566,232.26,93.794Z" transform="translate(124.235 28.331)" fill="#e64b4b"/>
    <path id="Path_603" data-name="Path 603" d="M98.338,100.34c-.8,1.347-1.531,2.669-2.387,3.9-.147.214-.98.214-1.256,0a1.319,1.319,0,0,1-.332-1.228,39.883,39.883,0,0,1,2.165-3.75.877.877,0,0,1,.829-.216A6.787,6.787,0,0,1,98.338,100.34Z" transform="translate(24.599 34.099)" fill="#e64b4b"/>
    <path id="Path_604" data-name="Path 604" d="M197.956,71.495c-.138.161-.384.7-.745.795a1.785,1.785,0,0,1-1.42-.294c-.437-.373-.615-1.035-.98-1.517s-.822-.862-1.209-1.315c-.171-.2-.4-.5-.356-.694.055-.257.349-.47.555-.688.045-.047.155-.031.237-.045C195.239,67.546,197.975,69.947,197.956,71.495Z" transform="translate(96.571 11.342)" fill="#e64b4b"/>
    <path id="Path_605" data-name="Path 605" d="M222.489,92.054c-.149.266-.212.546-.387.662-1.684,1.116-3.365,2.246-5.107,3.267-.32.188-.916-.1-1.382-.162a7.344,7.344,0,0,1,.926-1.018c1.423-1.075,2.863-2.13,4.331-3.142a1.789,1.789,0,0,1,1.1-.231C222.158,91.446,222.308,91.821,222.489,92.054Z" transform="translate(112.847 28.579)" fill="#e64b4b"/>
    <path id="Path_606" data-name="Path 606" d="M272.2,55.226a3.841,3.841,0,0,1-.726.821c-1.779,1.054-3.567,2.1-5.388,3.073-.3.162-.779-.01-1.175-.028.2-.339.321-.788.613-1q2.42-1.744,4.918-3.372a2.085,2.085,0,0,1,1.223-.209C271.837,54.526,271.978,54.915,272.2,55.226Z" transform="translate(148.711 1.72)" fill="#e64b4b"/>
    <path id="Path_607" data-name="Path 607" d="M206.72,57.4c-.819-.736-.8-1.543.061-2.135a17.475,17.475,0,0,1,3.118-1.677c.237-.1.729.4,1.1.622a5,5,0,0,1-.731.929,24.684,24.684,0,0,1-2.14,1.517,14.75,14.75,0,0,1-1.444.713Z" transform="translate(105.94 1.046)" fill="#e64b4b"/>
    <path id="Path_608" data-name="Path 608" d="M197.7,66.441c.973-.009,3.484,3.327,3.32,3.972a.9.9,0,0,1-1.607.377,22.2,22.2,0,0,1-2.04-3.263C197.236,67.263,197.6,66.74,197.7,66.441Z" transform="translate(99.555 10.406)" fill="#e64b4b"/>
    <path id="Path_609" data-name="Path 609" d="M74.861,103.667a1,1,0,0,1-.879-1.541A20.638,20.638,0,0,1,75.723,99.8a.83.83,0,0,1,.734-.211c.183.066.422.48.363.636-.4,1.049-.852,2.083-1.349,3.092C75.372,103.519,75.008,103.588,74.861,103.667Z" transform="translate(9.687 34.507)" fill="#e64b4b"/>
    <path id="Path_610" data-name="Path 610" d="M291.448,86.765c-.185.225-.4.717-.66.743a1.251,1.251,0,0,1-1.056-.484,9.717,9.717,0,0,1-.622-2.574,1.263,1.263,0,0,1,.689-.945c.2-.088.812.252.914.523A25.549,25.549,0,0,1,291.448,86.765Z" transform="translate(166.315 22.81)" fill="#e64b4b"/>
  </g>
</svg>
