<?xml version="1.0" encoding="utf-8"?>
<!-- Generator: Adobe Illustrator 23.0.2, SVG Export Plug-In . SVG Version: 6.00 Build 0)  -->
<svg version="1.1" id="Capa_1" xmlns="http://www.w3.org/2000/svg" xmlns:xlink="http://www.w3.org/1999/xlink" x="0px" y="0px"
	 viewBox="0 0 512 512" style="enable-background:new 0 0 512 512;" xml:space="preserve">
<style type="text/css">
	.st0{fill:#E64B4B;}
</style>
<g>
	<path class="st0" d="M409,181.5l-44.6-26.8l2.8-31.2c0.3-3.3,0.4-6.5,0.4-9.7C367.5,52.3,317.5,2.2,256,2.2S144.5,52.3,144.5,113.7
		c0,3.2,0.1,6.4,0.4,9.7l2.8,31.2L103,181.5c-11.1,6.6-18,18.9-18,31.9v85.3c0,13,6.9,25.2,18,31.9l44.6,26.8l-2.8,31.2
		c-0.3,3.3-0.4,6.5-0.4,9.7c0,61.5,50.1,111.5,111.5,111.5s111.5-50.1,111.5-111.5c0-3.2-0.1-6.4-0.4-9.7l-2.8-31.2l44.6-26.8
		c11.1-6.6,18-18.9,18-31.9v-85.3C427,200.4,420.1,188.2,409,181.5L409,181.5z M412.1,298.6c0,7.8-4.2,15.2-10.8,19.1l-48.6,29.1
		c-2.5,1.5-3.9,4.2-3.6,7l3.2,35.9c0.2,2.9,0.4,5.7,0.4,8.4c0,53.3-43.3,96.7-96.7,96.7s-96.7-43.3-96.7-96.7c0-2.8,0.1-5.6,0.4-8.4
		l3.2-35.9c0.2-2.9-1.2-5.6-3.6-7l-48.6-29.1c-6.6-4-10.8-11.3-10.8-19.1v-85.3c0-7.8,4.2-15.2,10.8-19.1l48.6-29.1
		c2.5-1.5,3.9-4.2,3.6-7l-3.2-35.9c-0.2-2.9-0.4-5.7-0.4-8.4c0-53.3,43.3-96.7,96.7-96.7s96.7,43.3,96.7,96.7c0,2.8-0.1,5.6-0.4,8.4
		l-3.2,35.9c-0.2,2.9,1.2,5.6,3.6,7l48.6,29.1c6.6,4,10.8,11.3,10.8,19.1V298.6z"/>
	<path class="st0" d="M337.5,120.9c0.2-2.4,0.3-4.9,0.3-7.1c0-45.1-36.7-81.8-81.8-81.8c-16.1,0-31.6,4.7-45.1,13.6
		c-3.5,2.3-4.4,6.8-2.1,10.3c2.3,3.5,6.8,4.4,10.3,2.1c11-7.2,23.7-11.1,36.9-11.1c36.9,0,66.9,30,66.9,66.9c0,1.9-0.1,3.9-0.3,5.8
		l-9.4,107.3c-1.7,19.3-1.7,39,0,58.3l9.4,107.3c0.2,2,0.3,4,0.3,5.8c0,36.9-30,66.9-66.9,66.9s-66.9-30-66.9-66.9
		c0-1.9,0.1-3.9,0.3-5.8l9.4-107.3c1.7-19.3,1.7-39,0-58.3l-9.4-107.3c-0.2-2-0.3-4-0.3-5.8c0-13.2,3.9-25.9,11.1-36.9
		c2.3-3.5,1.3-8-2.1-10.3c-3.5-2.3-8-1.3-10.3,2.1c-8.9,13.4-13.6,28.9-13.6,45.1c0,2.3,0.1,4.8,0.3,7.1l9.4,107.3
		c1.6,18.4,1.6,37.3,0,55.7l-9.4,107.3c-0.2,2.5-0.3,4.9-0.3,7.1c0,45.1,36.7,81.8,81.8,81.8s81.8-36.7,81.8-81.8
		c0-2.3-0.1-4.8-0.3-7.1l-9.4-107.3c-1.6-18.5-1.6-37.3,0-55.7L337.5,120.9z"/>
</g>
</svg>
