<?xml version="1.0" encoding="utf-8"?>
<!-- Generator: Adobe Illustrator 23.0.2, SVG Export Plug-In . SVG Version: 6.00 Build 0)  -->
<svg version="1.1" id="圖層_1" xmlns="http://www.w3.org/2000/svg" xmlns:xlink="http://www.w3.org/1999/xlink" x="0px" y="0px"
	 viewBox="0 0 133 31" style="enable-background:new 0 0 133 31;" xml:space="preserve">
<style type="text/css">
	.st0{fill:#383844;}
</style>
<path class="st0" d="M21.2,29L21.2,29c-0.3-0.2-0.5-0.4-0.7-0.6c-0.4-0.4-0.8-0.8-1.4-1c-0.5-0.3-1.8-0.1-3.1,0.1
	c-0.5,0.1-1,0.2-1.4,0.2c-0.5,0.1-1-0.1-1.4-0.4c-0.4-0.4-0.7-1.1-0.7-1.8c0-1.2,0-1.6-0.8-1.9c-0.2,0-0.2-0.2-0.2-0.6
	c0-0.4,0-0.9-0.5-1c-0.1,0-0.2-0.1-0.2-0.1c-0.1-0.1,0-0.5,0.2-0.8c0.1-0.1,0.1-0.3,0.1-0.4c0.2-0.6-0.4-0.9-1.1-1.1
	c-0.3-0.1-0.7-0.3-1.2-0.5c-0.2-0.1-0.3-0.2-0.3-0.4c-0.1-0.5,0.4-1.3,0.9-2.2c0.3-0.5,0.7-1.1,1-1.7c0.5-1.1,0.2-2-0.2-3
	C10.1,11,9.7,10.2,9.9,9c0.5-4.2,3.8-7,5.2-8.1c0,0,0.1-0.1,0.1-0.1c0-0.1,0-0.1,0-0.2c0-0.1-0.1-0.1-0.1-0.1c0,0-0.1,0-0.1,0
	C7.2,1.1,1.2,7.6,1.2,15.4c0,8.2,6.7,14.9,14.9,14.9c1.8,0,3.5-0.3,5.1-0.9c0.1,0,0.1-0.1,0.1-0.2C21.3,29.1,21.3,29.1,21.2,29z"/>
<g>
	<path class="st0" d="M30.7,21.1v-0.2l0.4-0.1c0.3-0.1,0.4-0.2,0.5-0.4s0.1-0.3,0.1-0.6v-9.4c0-0.2,0-0.4-0.1-0.6
		c-0.1-0.1-0.2-0.3-0.5-0.3l-0.4-0.1V9.2h4.6v0.2L35,9.6c-0.2,0.1-0.4,0.2-0.5,0.4c-0.1,0.2-0.1,0.3-0.1,0.6v10.3h2.8
		c0.4,0,0.8-0.1,1-0.3c0.2-0.2,0.4-0.5,0.6-0.9l0.7-1.5h0.2l-0.2,3.1H30.7z"/>
	<path class="st0" d="M43.8,21.4c-0.5,0-0.9-0.1-1.3-0.3c-0.4-0.2-0.7-0.5-0.9-0.9c-0.2-0.4-0.3-0.9-0.3-1.6l0.1-4.6
		c0-0.3,0-0.5-0.1-0.6s-0.2-0.2-0.4-0.3l-0.2-0.1v-0.2l3.2-0.6l0.2,0.2L43.9,15v4.3c0,0.4,0.1,0.7,0.3,0.8c0.2,0.2,0.5,0.3,0.8,0.3
		c0.3,0,0.6,0,0.9-0.1c0.3-0.1,0.5-0.2,0.8-0.4l0.1-5.9c0-0.3,0-0.5-0.1-0.6c-0.1-0.1-0.2-0.2-0.5-0.2L46,13.2V13l3.1-0.7l0.2,0.2
		L49.3,15v4.9c0,0.3,0,0.5,0.1,0.6c0.1,0.1,0.2,0.3,0.5,0.4l0.2,0.1v0.2l-3.2,0.2l-0.2-1.1c-0.4,0.3-0.8,0.6-1.3,0.8
		C45,21.3,44.4,21.4,43.8,21.4z"/>
	<path class="st0" d="M51.2,21.1v-0.2l0.3-0.1c0.4-0.1,0.6-0.4,0.6-0.9v-5.6c0-0.3,0-0.5-0.1-0.6c-0.1-0.1-0.2-0.2-0.5-0.3l-0.3-0.1
		v-0.2l3.1-1l0.2,0.2l0.1,1.1c0.4-0.4,0.9-0.7,1.4-0.9c0.5-0.2,1-0.4,1.6-0.4c0.8,0,1.4,0.2,1.8,0.6c0.4,0.4,0.6,1.1,0.6,2V20
		c0,0.5,0.2,0.8,0.7,0.9l0.2,0.1v0.2h-4.2v-0.2l0.2-0.1c0.4-0.1,0.6-0.4,0.6-0.9v-5.7c0-0.8-0.4-1.2-1.2-1.2c-0.5,0-1.1,0.3-1.7,0.8
		V20c0,0.5,0.2,0.8,0.6,0.9l0.2,0.1v0.2H51.2z"/>
	<path class="st0" d="M64.6,21.4c-0.7,0-1.3-0.2-1.8-0.6c-0.5-0.4-0.7-1-0.7-1.7c0-0.6,0.3-1.1,0.9-1.6c0.6-0.5,1.5-0.8,2.7-1.1
		c0.2,0,0.4-0.1,0.6-0.1c0.2,0,0.5-0.1,0.8-0.1v-1.4c0-0.8-0.1-1.4-0.3-1.7c-0.2-0.3-0.5-0.5-0.9-0.5c-0.3,0-0.5,0.1-0.7,0.3
		c-0.2,0.2-0.3,0.5-0.3,1l0,0.2c0,0.5-0.2,0.9-0.4,1.1s-0.5,0.4-0.8,0.4c-0.3,0-0.6-0.1-0.8-0.3c-0.2-0.2-0.3-0.4-0.3-0.8
		c0-0.5,0.2-0.9,0.5-1.2c0.3-0.3,0.8-0.6,1.4-0.8c0.6-0.2,1.2-0.3,1.8-0.3c1.1,0,1.9,0.3,2.5,0.8c0.6,0.5,0.9,1.4,0.9,2.5v4
		c0,0.5,0.3,0.8,0.8,0.8h0.4l0.2,0.1c-0.2,0.3-0.5,0.5-0.7,0.7s-0.7,0.2-1.1,0.2c-0.5,0-0.9-0.1-1.3-0.4c-0.3-0.2-0.5-0.6-0.6-1
		c-0.4,0.4-0.7,0.7-1.1,1C65.7,21.2,65.2,21.4,64.6,21.4z M65.7,20.3c0.2,0,0.5-0.1,0.7-0.2c0.2-0.1,0.5-0.3,0.7-0.5v-3
		c-0.1,0-0.2,0-0.4,0.1c-0.1,0-0.3,0-0.4,0.1c-0.6,0.1-1,0.4-1.3,0.7c-0.3,0.3-0.5,0.8-0.5,1.4c0,0.5,0.1,0.9,0.3,1.1
		C65.1,20.2,65.4,20.3,65.7,20.3z"/>
	<path class="st0" d="M71.7,21.1v-0.2l0.3-0.1c0.2-0.1,0.4-0.2,0.5-0.3c0.1-0.1,0.1-0.3,0.1-0.6v-5.6c0-0.3,0-0.5-0.1-0.6
		s-0.3-0.2-0.5-0.3l-0.3-0.1v-0.2l3.1-1l0.2,0.2l0.2,1.5v0.1c0.2-0.3,0.4-0.6,0.7-0.9s0.6-0.5,0.9-0.7c0.3-0.2,0.7-0.3,1-0.3
		c0.5,0,0.8,0.1,1,0.4s0.4,0.6,0.4,1c0,0.4-0.1,0.7-0.4,0.9c-0.2,0.2-0.5,0.3-0.8,0.3c-0.5,0-0.9-0.3-1.3-0.8l0,0
		c-0.1-0.2-0.3-0.3-0.4-0.3c-0.2,0-0.3,0.1-0.4,0.2c-0.1,0.1-0.2,0.2-0.3,0.4c-0.1,0.2-0.2,0.3-0.2,0.5v5c0,0.5,0.2,0.8,0.6,0.9
		l0.6,0.2v0.2H71.7z"/>
	<path class="st0" d="M84.5,21.1v-0.2l0.4-0.1c0.2-0.1,0.4-0.2,0.5-0.3c0.1-0.1,0.1-0.3,0.1-0.6v-9.4c0-0.2,0-0.4-0.1-0.6
		c-0.1-0.1-0.2-0.3-0.5-0.3l-0.3-0.1V9.2h4.4c1.8,0,3.1,0.3,3.9,1c0.8,0.7,1.2,1.5,1.2,2.6c0,0.7-0.2,1.3-0.5,1.9
		c-0.3,0.6-0.9,1-1.6,1.4c-0.8,0.3-1.8,0.5-3.1,0.5h-0.6v3.3c0,0.5,0.2,0.8,0.7,0.9l0.5,0.2v0.2H84.5z M88.2,16.2h0.7
		c0.6,0,1.1-0.1,1.4-0.3c0.4-0.2,0.6-0.5,0.8-1c0.2-0.5,0.3-1.1,0.3-2c0-0.9-0.1-1.5-0.3-2c-0.2-0.5-0.5-0.8-0.9-1
		c-0.4-0.2-0.9-0.3-1.4-0.3h-0.6V16.2z"/>
	<path class="st0" d="M94.9,21.1v-0.2l0.2-0.1c0.4-0.1,0.6-0.4,0.6-0.9v-9.6c0-0.3,0-0.4-0.1-0.6c-0.1-0.1-0.2-0.2-0.5-0.3l-0.3-0.1
		V9.3l3.2-0.8l0.3,0.2l-0.1,2.5v2.2c0.4-0.3,0.9-0.6,1.4-0.9c0.5-0.2,1-0.4,1.6-0.4c0.8,0,1.4,0.2,1.9,0.7c0.5,0.4,0.7,1.1,0.7,2.1
		V20c0,0.2,0,0.4,0.1,0.6c0.1,0.1,0.3,0.3,0.5,0.3l0.1,0.1v0.2h-4.2v-0.2l0.2-0.1c0.4-0.1,0.6-0.4,0.6-0.9v-5.7c0-0.5-0.1-0.8-0.2-1
		c-0.2-0.2-0.4-0.3-0.9-0.3c-0.3,0-0.6,0.1-0.9,0.2c-0.3,0.1-0.6,0.3-1,0.5V20c0,0.5,0.2,0.8,0.6,0.9l0.1,0v0.2H94.9z"/>
	<path class="st0" d="M108.3,21.4c-0.7,0-1.3-0.2-1.8-0.6c-0.5-0.4-0.7-1-0.7-1.7c0-0.6,0.3-1.1,0.9-1.6c0.6-0.5,1.5-0.8,2.7-1.1
		c0.2,0,0.4-0.1,0.6-0.1c0.2,0,0.5-0.1,0.8-0.1v-1.4c0-0.8-0.1-1.4-0.3-1.7c-0.2-0.3-0.5-0.5-0.9-0.5c-0.3,0-0.5,0.1-0.7,0.3
		c-0.2,0.2-0.3,0.5-0.3,1l0,0.2c0,0.5-0.2,0.9-0.4,1.1s-0.5,0.4-0.8,0.4c-0.3,0-0.6-0.1-0.8-0.3c-0.2-0.2-0.3-0.4-0.3-0.8
		c0-0.5,0.2-0.9,0.5-1.2c0.3-0.3,0.8-0.6,1.4-0.8c0.6-0.2,1.2-0.3,1.8-0.3c1.1,0,1.9,0.3,2.5,0.8c0.6,0.5,0.9,1.4,0.9,2.5v4
		c0,0.5,0.3,0.8,0.8,0.8h0.4l0.2,0.1c-0.2,0.3-0.5,0.5-0.7,0.7s-0.7,0.2-1.1,0.2c-0.5,0-0.9-0.1-1.3-0.4c-0.3-0.2-0.5-0.6-0.6-1
		c-0.4,0.4-0.7,0.7-1.1,1C109.4,21.2,108.9,21.4,108.3,21.4z M109.4,20.3c0.2,0,0.5-0.1,0.7-0.2c0.2-0.1,0.5-0.3,0.7-0.5v-3
		c-0.1,0-0.2,0-0.4,0.1c-0.1,0-0.3,0-0.4,0.1c-0.6,0.1-1,0.4-1.3,0.7c-0.3,0.3-0.5,0.8-0.5,1.4c0,0.5,0.1,0.9,0.3,1.1
		C108.8,20.2,109.1,20.3,109.4,20.3z"/>
	<path class="st0" d="M118.6,21.4c-0.6,0-1.1-0.1-1.6-0.2c-0.5-0.1-0.9-0.3-1.3-0.5l0-2.1h0.2l0.6,1.1c0.3,0.5,0.6,0.8,0.9,1.1
		c0.3,0.2,0.7,0.4,1.2,0.4c0.6,0,1-0.1,1.4-0.4c0.4-0.3,0.5-0.6,0.5-1c0-0.4-0.1-0.7-0.4-1s-0.7-0.5-1.4-0.7l-0.8-0.2
		c-0.7-0.2-1.3-0.6-1.7-1s-0.6-1-0.6-1.7c0-0.8,0.3-1.5,0.9-2s1.5-0.8,2.7-0.8c0.5,0,0.9,0.1,1.3,0.2c0.4,0.1,0.8,0.3,1.2,0.5
		l-0.1,1.9h-0.2l-0.6-1.1c-0.2-0.4-0.5-0.7-0.7-0.8s-0.6-0.2-1-0.2c-0.4,0-0.8,0.1-1.2,0.3c-0.4,0.2-0.5,0.6-0.5,1
		c0,0.4,0.2,0.7,0.5,1c0.3,0.2,0.8,0.5,1.4,0.7l0.8,0.2c0.9,0.3,1.5,0.6,1.9,1.1s0.6,1,0.6,1.7c0,0.9-0.3,1.6-1,2.1
		C120.8,21.1,119.8,21.4,118.6,21.4z"/>
	<path class="st0" d="M128.3,12.2c0.8,0,1.4,0.2,2,0.5c0.6,0.3,1,0.8,1.3,1.3c0.3,0.5,0.4,1.2,0.4,1.9c0,0.1,0,0.3,0,0.4
		c0,0.1,0,0.3-0.1,0.4h-5.4c0,1.3,0.2,2.2,0.7,2.8c0.4,0.6,1.1,0.9,2,0.9c0.6,0,1.1-0.1,1.5-0.3c0.4-0.2,0.7-0.5,1-0.8l0.2,0.2
		c-0.4,0.7-0.9,1.2-1.5,1.5s-1.4,0.6-2.2,0.6c-0.9,0-1.6-0.2-2.3-0.5c-0.7-0.4-1.2-0.9-1.5-1.6c-0.4-0.7-0.6-1.5-0.6-2.4
		c0-1,0.2-1.8,0.6-2.5c0.4-0.7,1-1.2,1.7-1.6C126.8,12.4,127.5,12.2,128.3,12.2z M128.2,12.5c-0.3,0-0.6,0.1-0.9,0.3
		c-0.2,0.2-0.4,0.6-0.6,1.1c-0.1,0.5-0.2,1.3-0.2,2.3h3.1c0.1-1.3,0.1-2.2-0.1-2.8C129.2,12.8,128.8,12.5,128.2,12.5z"/>
</g>
</svg>
