<?xml version="1.0" encoding="utf-8"?>
<!-- Generator: Adobe Illustrator 23.0.2, SVG Export Plug-In . SVG Version: 6.00 Build 0)  -->
<svg version="1.1" id="Capa_1" xmlns="http://www.w3.org/2000/svg" xmlns:xlink="http://www.w3.org/1999/xlink" x="0px" y="0px"
	 viewBox="0 0 512 512" style="enable-background:new 0 0 512 512;" xml:space="preserve">
<style type="text/css">
	.st0{fill:#E64B4B;}
</style>
<g>
	<path class="st0" d="M363.7,72.2H148.3c-17.8,0-32.3,14.5-32.3,32.3c0,14,9,26,21.5,30.5v45.5c0,59,31.7,116.5,86.2,146.6v80.4
		c0,17.8,14.5,32.3,32.3,32.3s32.3-14.5,32.3-32.3v-80.4c54.4-30,86.2-87.4,86.2-146.6V135c12.5-4.4,21.5-16.4,21.5-30.5
		C396,86.7,381.5,72.2,363.7,72.2z M352.9,158.4H159.1v-21.5h193.8V158.4z M337.7,245.2H174.3c-9.8-19.8-15.2-42-15.2-64.7v-0.6
		h193.8v0.6C352.9,203.3,347.5,225.4,337.7,245.2z M256,418.3c-5.9,0-10.8-4.8-10.8-10.8v-10.8h21.5v10.8
		C266.8,413.4,261.9,418.3,256,418.3z M272.7,311c-3.6,1.8-6,5.6-6,9.6v54.6h-21.5v-54.6c0-4.1-2.3-7.8-6-9.6
		c-20.8-10.4-38.5-25.8-52-44.2h137.4C311.3,285.2,293.6,300.6,272.7,311L272.7,311z M363.7,115.3H148.3c-5.9,0-10.8-4.8-10.8-10.8
		c0-5.9,4.8-10.8,10.8-10.8h215.4c5.9,0,10.8,4.8,10.8,10.8C374.5,110.5,369.6,115.3,363.7,115.3z"/>
</g>
</svg>
